<svg id="svg" version="1.1" xmlns="http://www.w3.org/2000/svg" xmlns:xlink="http://www.w3.org/1999/xlink" width="400" height="400" viewBox="0, 0, 400,400"><g id="svgg"><path id="path0" d="M196.600 93.255 C 189.867 94.820,186.145 96.393,181.954 99.445 C 178.669 101.838,174.879 105.816,173.892 107.909 C 173.591 108.548,172.801 108.998,171.232 109.425 C 170.004 109.759,166.805 110.896,164.121 111.951 L 159.242 113.870 158.051 112.235 C 139.469 86.735,100.000 100.322,100.000 132.218 C 100.000 141.010,103.618 149.309,110.299 155.846 C 113.228 158.711,113.186 158.486,111.431 161.921 C 107.171 170.258,105.253 177.707,104.203 190.000 C 103.548 197.668,107.620 216.733,110.825 221.000 C 112.238 222.880,113.408 225.940,112.984 226.640 C 112.730 227.058,111.853 228.438,111.035 229.707 C 109.734 231.725,106.607 237.986,104.087 243.617 C 99.175 254.594,96.937 267.581,98.800 274.303 C 99.240 275.891,99.600 277.327,99.600 277.495 C 99.601 277.663,96.226 277.742,92.100 277.670 C 82.500 277.504,80.752 277.715,79.002 279.252 C 75.381 282.431,76.988 287.850,81.948 289.186 C 83.022 289.475,119.501 289.574,199.453 289.503 L 315.400 289.400 317.066 288.509 C 320.329 286.765,321.365 283.455,319.561 280.538 C 317.984 277.985,317.229 277.811,307.269 277.704 C 298.193 277.607,297.253 277.502,297.945 276.664 C 301.163 272.769,299.606 258.768,294.557 246.200 C 293.762 244.220,292.788 241.790,292.392 240.800 C 291.504 238.575,287.307 230.418,286.629 229.600 C 286.356 229.270,285.740 228.225,285.261 227.278 L 284.389 225.555 286.017 222.278 C 292.062 210.107,294.404 198.073,293.067 186.052 C 292.372 179.799,292.005 177.903,290.462 172.587 C 289.543 169.421,287.372 163.841,286.580 162.611 C 286.293 162.165,285.773 161.078,285.424 160.195 L 284.789 158.590 287.923 155.395 C 305.788 137.180,298.471 107.775,274.176 100.150 C 267.140 97.942,254.018 99.137,250.871 102.273 C 250.581 102.563,250.118 102.800,249.844 102.800 C 248.324 102.800,241.232 109.410,239.560 112.385 C 238.457 114.349,238.462 114.349,234.550 112.558 C 229.843 110.404,222.442 108.060,217.903 107.286 C 213.896 106.603,213.873 106.593,213.320 105.200 C 213.014 104.430,212.574 103.417,212.341 102.949 C 212.013 102.291,212.074 101.859,212.610 101.041 C 215.920 95.989,205.869 91.100,196.600 93.255 M206.000 105.501 C 208.542 106.770,208.225 108.022,204.462 111.574 C 200.750 115.078,200.225 116.261,201.718 117.754 C 202.697 118.733,202.747 118.740,205.056 118.188 C 213.132 116.259,222.000 119.779,222.000 124.913 C 222.000 128.347,225.200 130.036,227.447 127.789 C 228.307 126.929,228.443 126.467,228.355 124.689 C 228.230 122.130,228.259 122.130,233.600 124.726 C 269.998 142.424,290.053 180.903,278.459 210.800 C 276.571 215.669,274.800 218.240,274.800 216.112 C 274.800 213.746,271.041 210.053,267.335 208.777 C 264.405 207.769,135.140 207.546,131.400 208.542 C 127.372 209.616,124.088 212.258,123.158 215.176 C 122.468 217.337,122.137 217.437,121.273 215.744 C 114.788 203.032,114.081 186.836,119.376 172.277 C 127.025 151.242,145.510 132.054,166.600 123.257 C 171.147 121.361,171.020 121.365,171.860 123.086 C 173.824 127.105,178.483 126.519,180.486 122.000 C 183.095 116.113,183.856 114.917,186.987 111.787 C 192.731 106.042,201.368 103.187,206.000 105.501 M162.400 157.057 C 157.132 158.082,150.909 162.121,147.512 166.720 C 138.686 178.667,144.383 192.954,157.720 192.318 C 173.708 191.556,184.500 170.531,174.046 160.514 C 171.350 157.931,166.028 156.352,162.400 157.057 M230.000 157.162 C 218.752 159.596,216.126 172.458,224.545 183.885 C 235.262 198.431,256.367 193.008,254.347 176.227 C 253.130 166.117,239.162 155.179,230.000 157.162 M195.600 172.941 C 194.830 173.243,193.723 173.683,193.139 173.920 C 188.665 175.735,188.997 181.857,193.700 184.247 C 196.007 185.420,196.008 185.430,193.938 187.521 C 192.018 189.460,191.178 189.589,189.527 188.200 C 186.997 186.071,183.989 187.481,184.560 190.528 C 185.421 195.114,192.923 196.569,197.132 192.965 L 198.754 191.577 200.846 193.161 C 205.823 196.928,213.600 194.806,213.600 189.682 C 213.600 187.209,210.530 186.347,208.327 188.200 C 206.687 189.580,205.866 189.462,203.791 187.549 C 201.576 185.508,201.576 185.353,203.781 184.408 C 212.604 180.626,204.604 169.414,195.600 172.941 M159.040 174.160 C 161.176 176.296,160.879 179.318,158.408 180.596 C 155.359 182.173,152.400 180.402,152.400 177.000 C 152.400 173.057,156.278 171.398,159.040 174.160 M243.842 173.635 C 246.892 176.166,245.309 181.200,241.464 181.200 C 239.303 181.200,237.200 179.128,237.200 177.000 C 237.200 173.772,241.427 171.630,243.842 173.635 M261.600 219.901 C 264.520 221.359,264.414 220.157,264.301 250.600 L 264.200 277.800 236.400 278.000 C 218.151 278.131,208.442 278.063,208.141 277.800 C 207.889 277.580,207.377 274.610,207.005 271.200 C 206.632 267.790,206.179 264.190,205.997 263.201 C 205.552 260.778,205.838 260.567,209.686 260.466 C 213.458 260.368,214.400 259.755,214.400 257.400 C 214.400 254.374,214.826 254.453,197.856 254.331 L 182.712 254.222 181.956 255.155 C 179.594 258.072,181.742 260.400,186.794 260.400 C 189.754 260.400,190.471 260.518,190.671 261.040 C 191.059 262.051,189.895 276.798,189.359 277.666 C 189.054 278.159,133.298 278.094,133.133 277.601 C 133.060 277.382,133.090 264.796,133.200 249.633 L 133.400 222.064 134.400 220.988 C 134.950 220.397,135.760 219.764,136.200 219.582 C 138.021 218.828,260.075 219.139,261.600 219.901 " stroke="none" fill="#121420" fill-rule="evenodd"></path><path id="path1" d="M184.400 0.252 C 178.347 0.670,169.534 1.670,167.400 2.181 C 166.080 2.496,163.020 3.055,160.600 3.423 C 158.180 3.790,156.110 4.214,156.000 4.365 C 155.890 4.516,154.000 4.968,151.800 5.370 C 149.600 5.772,147.350 6.340,146.800 6.632 C 146.250 6.923,144.453 7.452,142.808 7.807 C 141.162 8.161,139.722 8.585,139.608 8.748 C 139.493 8.910,137.870 9.456,136.000 9.960 C 134.130 10.465,132.420 11.016,132.200 11.186 C 131.980 11.355,130.810 11.815,129.600 12.206 C 128.390 12.598,127.310 13.034,127.200 13.176 C 127.090 13.318,126.190 13.685,125.200 13.992 C 124.210 14.299,122.103 15.146,120.518 15.875 C 118.934 16.604,117.359 17.200,117.018 17.200 C 116.678 17.200,116.400 17.358,116.400 17.551 C 116.400 17.744,115.320 18.306,114.000 18.800 C 112.680 19.294,111.600 19.831,111.600 19.994 C 111.600 20.158,110.745 20.614,109.700 21.009 C 108.655 21.404,107.710 21.849,107.600 21.997 C 107.490 22.146,106.410 22.748,105.200 23.335 C 103.990 23.922,102.280 24.846,101.400 25.388 C 100.520 25.931,99.043 26.746,98.118 27.198 C 97.192 27.651,96.202 28.242,95.918 28.512 C 95.633 28.781,94.725 29.357,93.900 29.792 C 93.075 30.226,92.400 30.701,92.400 30.847 C 92.400 30.993,91.590 31.493,90.600 31.958 C 89.610 32.423,88.798 32.938,88.795 33.102 C 88.793 33.266,88.073 33.744,87.195 34.164 C 86.318 34.585,85.600 35.076,85.600 35.256 C 85.600 35.436,84.902 35.940,84.049 36.375 C 83.196 36.810,82.392 37.444,82.262 37.783 C 82.132 38.122,81.825 38.400,81.580 38.400 C 81.335 38.400,80.366 39.030,79.426 39.800 C 78.486 40.570,77.532 41.200,77.305 41.200 C 77.078 41.200,76.597 41.650,76.237 42.200 C 75.876 42.750,75.336 43.200,75.037 43.200 C 74.737 43.200,74.197 43.650,73.837 44.200 C 73.476 44.750,72.948 45.200,72.663 45.200 C 72.378 45.200,71.784 45.605,71.343 46.100 C 70.902 46.595,69.674 47.720,68.614 48.600 C 67.553 49.480,66.145 50.650,65.484 51.200 C 64.824 51.750,61.564 54.920,58.241 58.244 C 52.791 63.697,51.337 65.272,48.000 69.330 C 47.450 69.999,46.595 70.906,46.100 71.346 C 45.605 71.785,45.200 72.378,45.200 72.663 C 45.200 72.948,44.750 73.476,44.200 73.837 C 43.650 74.197,43.200 74.737,43.200 75.037 C 43.200 75.336,42.750 75.876,42.200 76.237 C 41.650 76.597,41.200 77.078,41.200 77.305 C 41.200 77.532,40.570 78.486,39.800 79.426 C 39.030 80.366,38.400 81.335,38.400 81.580 C 38.400 81.825,38.122 82.132,37.783 82.262 C 37.444 82.392,36.810 83.196,36.375 84.049 C 35.940 84.902,35.436 85.600,35.256 85.600 C 35.076 85.600,34.585 86.318,34.164 87.195 C 33.744 88.073,33.266 88.793,33.102 88.795 C 32.938 88.798,32.423 89.610,31.958 90.600 C 31.493 91.590,30.993 92.400,30.847 92.400 C 30.701 92.400,30.226 93.075,29.792 93.900 C 29.357 94.725,28.781 95.633,28.512 95.918 C 28.242 96.202,27.651 97.192,27.198 98.118 C 26.746 99.043,25.931 100.520,25.388 101.400 C 24.846 102.280,23.922 103.990,23.335 105.200 C 22.748 106.410,22.146 107.490,21.997 107.600 C 21.849 107.710,21.404 108.655,21.009 109.700 C 20.614 110.745,20.158 111.600,19.994 111.600 C 19.831 111.600,19.294 112.680,18.800 114.000 C 18.306 115.320,17.744 116.400,17.551 116.400 C 17.358 116.400,17.200 116.678,17.200 117.018 C 17.200 117.359,16.604 118.934,15.875 120.518 C 15.146 122.103,14.299 124.210,13.992 125.200 C 13.685 126.190,13.318 127.090,13.176 127.200 C 13.034 127.310,12.598 128.390,12.206 129.600 C 11.815 130.810,11.355 131.980,11.186 132.200 C 11.016 132.420,10.465 134.130,9.960 136.000 C 9.456 137.870,8.910 139.493,8.748 139.608 C 8.585 139.722,8.161 141.162,7.807 142.808 C 7.452 144.453,6.923 146.250,6.632 146.800 C 6.340 147.350,5.772 149.600,5.370 151.800 C 4.968 154.000,4.516 155.890,4.365 156.000 C 4.214 156.110,3.790 158.180,3.423 160.600 C 3.055 163.020,2.496 166.080,2.181 167.400 C -0.597 179.005,-0.597 220.995,2.181 232.600 C 2.496 233.920,3.055 236.980,3.423 239.400 C 3.790 241.820,4.214 243.890,4.365 244.000 C 4.516 244.110,4.968 246.000,5.370 248.200 C 5.772 250.400,6.340 252.650,6.632 253.200 C 6.923 253.750,7.452 255.547,7.807 257.192 C 8.161 258.838,8.585 260.278,8.748 260.392 C 8.910 260.507,9.456 262.130,9.960 264.000 C 10.465 265.870,11.016 267.580,11.186 267.800 C 11.355 268.020,11.815 269.190,12.206 270.400 C 12.598 271.610,13.034 272.690,13.176 272.800 C 13.318 272.910,13.685 273.810,13.992 274.800 C 14.299 275.790,15.146 277.897,15.875 279.482 C 16.604 281.066,17.200 282.641,17.200 282.982 C 17.200 283.322,17.358 283.600,17.551 283.600 C 17.744 283.600,18.306 284.680,18.800 286.000 C 19.294 287.320,19.831 288.400,19.994 288.400 C 20.158 288.400,20.614 289.255,21.009 290.300 C 21.404 291.345,21.849 292.290,21.997 292.400 C 22.146 292.510,22.748 293.590,23.335 294.800 C 23.922 296.010,24.846 297.720,25.388 298.600 C 25.931 299.480,26.746 300.957,27.198 301.882 C 27.651 302.808,28.242 303.798,28.512 304.082 C 28.781 304.367,29.357 305.275,29.792 306.100 C 30.226 306.925,30.701 307.600,30.847 307.600 C 30.993 307.600,31.493 308.410,31.958 309.400 C 32.423 310.390,32.938 311.202,33.102 311.205 C 33.266 311.207,33.744 311.927,34.164 312.805 C 34.585 313.682,35.076 314.400,35.256 314.400 C 35.436 314.400,35.940 315.098,36.375 315.951 C 36.810 316.804,37.444 317.608,37.783 317.738 C 38.122 317.868,38.400 318.175,38.400 318.420 C 38.400 318.665,39.030 319.634,39.800 320.574 C 40.570 321.514,41.200 322.468,41.200 322.695 C 41.200 322.922,41.650 323.403,42.200 323.763 C 42.750 324.124,43.200 324.664,43.200 324.963 C 43.200 325.263,43.650 325.803,44.200 326.163 C 44.750 326.524,45.200 327.052,45.200 327.337 C 45.200 327.622,45.605 328.216,46.100 328.657 C 46.595 329.098,47.720 330.326,48.600 331.386 C 49.480 332.447,50.650 333.855,51.200 334.516 C 52.500 336.077,63.923 347.500,65.484 348.800 C 66.145 349.350,67.553 350.520,68.614 351.400 C 69.674 352.280,70.902 353.405,71.343 353.900 C 71.784 354.395,72.378 354.800,72.663 354.800 C 72.948 354.800,73.476 355.250,73.837 355.800 C 74.197 356.350,74.737 356.800,75.037 356.800 C 75.336 356.800,75.876 357.250,76.237 357.800 C 76.597 358.350,77.078 358.800,77.305 358.800 C 77.532 358.800,78.456 359.398,79.359 360.129 C 80.261 360.861,81.315 361.575,81.700 361.717 C 82.085 361.859,82.400 362.157,82.400 362.379 C 82.400 362.602,83.120 363.151,84.000 363.600 C 84.880 364.049,85.600 364.564,85.600 364.744 C 85.600 364.924,86.318 365.415,87.195 365.836 C 88.073 366.256,88.793 366.734,88.795 366.898 C 88.798 367.062,89.610 367.577,90.600 368.042 C 91.590 368.507,92.400 369.007,92.400 369.153 C 92.400 369.299,93.075 369.774,93.900 370.208 C 94.725 370.643,95.633 371.219,95.918 371.488 C 96.202 371.758,97.192 372.349,98.118 372.802 C 99.043 373.254,100.520 374.069,101.400 374.612 C 102.280 375.154,103.990 376.078,105.200 376.665 C 106.410 377.252,107.490 377.854,107.600 378.003 C 107.710 378.151,108.655 378.596,109.700 378.991 C 110.745 379.386,111.600 379.842,111.600 380.006 C 111.600 380.169,112.680 380.706,114.000 381.200 C 115.320 381.694,116.400 382.256,116.400 382.449 C 116.400 382.642,116.678 382.800,117.018 382.800 C 117.359 382.800,118.934 383.396,120.518 384.125 C 122.103 384.854,124.210 385.701,125.200 386.008 C 126.190 386.315,127.090 386.682,127.200 386.824 C 127.310 386.966,128.390 387.402,129.600 387.794 C 130.810 388.185,131.980 388.645,132.200 388.814 C 132.420 388.984,134.130 389.535,136.000 390.040 C 137.870 390.544,139.496 391.094,139.613 391.262 C 139.731 391.430,141.261 391.877,143.013 392.257 C 144.766 392.636,146.303 393.098,146.429 393.282 C 146.555 393.467,148.715 394.014,151.229 394.498 C 153.743 394.981,155.890 395.497,156.000 395.643 C 156.110 395.790,158.180 396.210,160.600 396.577 C 163.020 396.945,166.080 397.504,167.400 397.819 C 179.005 400.597,220.995 400.597,232.600 397.819 C 233.920 397.504,236.980 396.945,239.400 396.577 C 241.820 396.210,243.890 395.790,244.000 395.643 C 244.110 395.497,246.257 394.981,248.771 394.498 C 251.285 394.014,253.445 393.467,253.571 393.282 C 253.697 393.098,255.234 392.636,256.987 392.257 C 258.739 391.877,260.269 391.430,260.387 391.262 C 260.504 391.094,262.130 390.544,264.000 390.040 C 265.870 389.535,267.580 388.984,267.800 388.814 C 268.020 388.645,269.190 388.185,270.400 387.794 C 271.610 387.402,272.690 386.966,272.800 386.824 C 272.910 386.682,273.810 386.315,274.800 386.008 C 275.790 385.701,277.897 384.854,279.482 384.125 C 281.066 383.396,282.641 382.800,282.982 382.800 C 283.322 382.800,283.600 382.642,283.600 382.449 C 283.600 382.256,284.680 381.694,286.000 381.200 C 287.320 380.706,288.400 380.169,288.400 380.006 C 288.400 379.842,289.255 379.386,290.300 378.991 C 291.345 378.596,292.290 378.151,292.400 378.003 C 292.510 377.854,293.590 377.252,294.800 376.665 C 296.010 376.078,297.720 375.154,298.600 374.612 C 299.480 374.069,300.957 373.254,301.882 372.802 C 302.808 372.349,303.798 371.758,304.082 371.488 C 304.367 371.219,305.275 370.643,306.100 370.208 C 306.925 369.774,307.600 369.299,307.600 369.153 C 307.600 369.007,308.410 368.507,309.400 368.042 C 310.390 367.577,311.202 367.062,311.205 366.898 C 311.207 366.734,311.927 366.256,312.805 365.836 C 313.682 365.415,314.400 364.924,314.400 364.744 C 314.400 364.564,315.120 364.049,316.000 363.600 C 316.880 363.151,317.600 362.602,317.600 362.379 C 317.600 362.157,317.915 361.859,318.300 361.717 C 318.685 361.575,319.739 360.861,320.641 360.129 C 321.544 359.398,322.468 358.800,322.695 358.800 C 322.922 358.800,323.403 358.350,323.763 357.800 C 324.124 357.250,324.664 356.800,324.963 356.800 C 325.263 356.800,325.803 356.350,326.163 355.800 C 326.524 355.250,327.052 354.800,327.337 354.800 C 327.622 354.800,328.216 354.395,328.657 353.900 C 329.098 353.405,330.326 352.280,331.386 351.400 C 332.447 350.520,333.855 349.350,334.516 348.800 C 335.176 348.250,338.436 345.080,341.759 341.756 C 347.209 336.303,348.663 334.728,352.000 330.670 C 352.550 330.001,353.405 329.094,353.900 328.654 C 354.395 328.215,354.800 327.622,354.800 327.337 C 354.800 327.052,355.250 326.524,355.800 326.163 C 356.350 325.803,356.800 325.263,356.800 324.963 C 356.800 324.664,357.250 324.124,357.800 323.763 C 358.350 323.403,358.800 322.922,358.800 322.695 C 358.800 322.468,359.430 321.514,360.200 320.574 C 360.970 319.634,361.600 318.665,361.600 318.420 C 361.600 318.175,361.878 317.868,362.217 317.738 C 362.556 317.608,363.190 316.804,363.625 315.951 C 364.060 315.098,364.564 314.400,364.744 314.400 C 364.924 314.400,365.415 313.682,365.836 312.805 C 366.256 311.927,366.734 311.207,366.898 311.205 C 367.062 311.202,367.577 310.390,368.042 309.400 C 368.507 308.410,369.007 307.600,369.153 307.600 C 369.299 307.600,369.774 306.925,370.208 306.100 C 370.643 305.275,371.219 304.367,371.488 304.082 C 371.758 303.798,372.349 302.808,372.802 301.882 C 373.254 300.957,374.069 299.480,374.612 298.600 C 375.154 297.720,376.078 296.010,376.665 294.800 C 377.252 293.590,377.854 292.510,378.003 292.400 C 378.151 292.290,378.596 291.345,378.991 290.300 C 379.386 289.255,379.842 288.400,380.006 288.400 C 380.169 288.400,380.706 287.320,381.200 286.000 C 381.694 284.680,382.256 283.600,382.449 283.600 C 382.642 283.600,382.800 283.322,382.800 282.982 C 382.800 282.641,383.396 281.066,384.125 279.482 C 384.854 277.897,385.701 275.790,386.008 274.800 C 386.315 273.810,386.682 272.910,386.824 272.800 C 386.966 272.690,387.402 271.610,387.794 270.400 C 388.185 269.190,388.645 268.020,388.814 267.800 C 388.984 267.580,389.535 265.870,390.040 264.000 C 390.544 262.130,391.094 260.504,391.262 260.387 C 391.430 260.269,391.877 258.739,392.257 256.987 C 392.636 255.234,393.098 253.697,393.282 253.571 C 393.467 253.445,394.014 251.285,394.498 248.771 C 394.981 246.257,395.497 244.110,395.643 244.000 C 395.790 243.890,396.210 241.820,396.577 239.400 C 396.945 236.980,397.504 233.920,397.819 232.600 C 399.271 226.533,399.793 217.912,399.793 200.000 C 399.793 182.088,399.271 173.467,397.819 167.400 C 397.504 166.080,396.945 163.020,396.577 160.600 C 396.210 158.180,395.790 156.110,395.643 156.000 C 395.497 155.890,394.981 153.743,394.498 151.229 C 394.014 148.715,393.467 146.555,393.282 146.429 C 393.098 146.303,392.636 144.766,392.257 143.013 C 391.877 141.261,391.430 139.731,391.262 139.613 C 391.094 139.496,390.544 137.870,390.040 136.000 C 389.535 134.130,388.984 132.420,388.814 132.200 C 388.645 131.980,388.185 130.810,387.794 129.600 C 387.402 128.390,386.966 127.310,386.824 127.200 C 386.682 127.090,386.315 126.190,386.008 125.200 C 385.701 124.210,384.854 122.103,384.125 120.518 C 383.396 118.934,382.800 117.359,382.800 117.018 C 382.800 116.678,382.642 116.400,382.449 116.400 C 382.256 116.400,381.694 115.320,381.200 114.000 C 380.706 112.680,380.169 111.600,380.006 111.600 C 379.842 111.600,379.386 110.745,378.991 109.700 C 378.596 108.655,378.151 107.710,378.003 107.600 C 377.854 107.490,377.252 106.410,376.665 105.200 C 376.078 103.990,375.154 102.280,374.612 101.400 C 374.069 100.520,373.254 99.043,372.802 98.118 C 372.349 97.192,371.758 96.202,371.488 95.918 C 371.219 95.633,370.643 94.725,370.208 93.900 C 369.774 93.075,369.299 92.400,369.153 92.400 C 369.007 92.400,368.507 91.590,368.042 90.600 C 367.577 89.610,367.062 88.798,366.898 88.795 C 366.734 88.793,366.256 88.073,365.836 87.195 C 365.415 86.318,364.924 85.600,364.744 85.600 C 364.564 85.600,364.060 84.902,363.625 84.049 C 363.190 83.196,362.556 82.392,362.217 82.262 C 361.878 82.132,361.600 81.825,361.600 81.580 C 361.600 81.335,360.970 80.366,360.200 79.426 C 359.430 78.486,358.800 77.532,358.800 77.305 C 358.800 77.078,358.350 76.597,357.800 76.237 C 357.250 75.876,356.800 75.336,356.800 75.037 C 356.800 74.737,356.350 74.197,355.800 73.837 C 355.250 73.476,354.800 72.948,354.800 72.663 C 354.800 72.378,354.395 71.784,353.900 71.343 C 353.405 70.902,352.280 69.674,351.400 68.614 C 350.520 67.553,349.350 66.145,348.800 65.484 C 347.500 63.923,336.077 52.500,334.516 51.200 C 333.855 50.650,332.447 49.480,331.386 48.600 C 330.326 47.720,329.098 46.595,328.657 46.100 C 328.216 45.605,327.622 45.200,327.337 45.200 C 327.052 45.200,326.524 44.750,326.163 44.200 C 325.803 43.650,325.263 43.200,324.963 43.200 C 324.664 43.200,324.124 42.750,323.763 42.200 C 323.403 41.650,322.922 41.200,322.695 41.200 C 322.468 41.200,321.514 40.570,320.574 39.800 C 319.634 39.030,318.665 38.400,318.420 38.400 C 318.175 38.400,317.868 38.122,317.738 37.783 C 317.608 37.444,316.804 36.810,315.951 36.375 C 315.098 35.940,314.400 35.436,314.400 35.256 C 314.400 35.076,313.682 34.585,312.805 34.164 C 311.927 33.744,311.207 33.266,311.205 33.102 C 311.202 32.938,310.390 32.423,309.400 31.958 C 308.410 31.493,307.600 30.993,307.600 30.847 C 307.600 30.701,306.925 30.226,306.100 29.792 C 305.275 29.357,304.367 28.781,304.082 28.512 C 303.798 28.242,302.808 27.651,301.882 27.198 C 300.957 26.746,299.480 25.931,298.600 25.388 C 297.720 24.846,296.010 23.922,294.800 23.335 C 293.590 22.748,292.510 22.146,292.400 21.997 C 292.290 21.849,291.345 21.404,290.300 21.009 C 289.255 20.614,288.400 20.158,288.400 19.994 C 288.400 19.831,287.320 19.294,286.000 18.800 C 284.680 18.306,283.600 17.744,283.600 17.551 C 283.600 17.358,283.322 17.200,282.982 17.200 C 282.641 17.200,281.066 16.604,279.482 15.875 C 277.897 15.146,275.790 14.299,274.800 13.992 C 273.810 13.685,272.910 13.318,272.800 13.176 C 272.690 13.034,271.610 12.598,270.400 12.206 C 269.190 11.815,268.020 11.355,267.800 11.186 C 267.580 11.016,265.870 10.465,264.000 9.960 C 262.130 9.456,260.507 8.910,260.392 8.748 C 260.278 8.585,258.838 8.161,257.192 7.807 C 255.547 7.452,253.750 6.923,253.200 6.632 C 252.650 6.340,250.400 5.772,248.200 5.370 C 246.000 4.968,244.110 4.516,244.000 4.365 C 243.890 4.214,241.820 3.790,239.400 3.423 C 236.980 3.055,233.920 2.497,232.600 2.182 C 226.234 0.662,195.999 -0.549,184.400 0.252 M208.277 93.401 C 212.205 94.567,214.940 99.056,213.017 101.181 C 212.504 101.748,212.540 102.091,213.315 104.049 L 214.195 106.272 218.365 106.943 C 220.658 107.312,222.729 107.770,222.967 107.960 C 223.205 108.151,224.388 108.515,225.595 108.769 C 226.802 109.024,228.152 109.460,228.595 109.739 C 229.038 110.017,230.205 110.480,231.190 110.766 C 232.174 111.052,234.082 111.807,235.429 112.443 C 238.514 113.901,238.641 113.893,239.196 112.213 C 239.689 110.717,246.088 104.000,247.020 104.000 C 247.317 104.000,247.704 103.770,247.880 103.489 C 248.056 103.207,249.010 102.627,250.000 102.200 C 250.990 101.772,251.898 101.287,252.017 101.122 C 254.281 97.988,276.010 97.998,278.397 101.133 C 278.509 101.280,279.485 101.850,280.566 102.400 C 284.045 104.170,284.420 104.433,287.190 107.046 C 291.432 111.048,293.940 114.699,296.364 120.400 C 298.596 125.651,298.736 137.657,296.622 142.600 C 296.340 143.260,295.772 144.610,295.361 145.600 C 294.950 146.590,294.386 147.638,294.107 147.929 C 293.828 148.219,293.600 148.652,293.600 148.889 C 293.600 149.649,291.090 152.788,288.071 155.801 L 285.143 158.725 287.171 162.941 C 288.287 165.260,289.201 167.392,289.202 167.678 C 289.204 167.965,289.461 168.691,289.774 169.290 C 290.086 169.890,290.639 171.690,291.001 173.290 C 291.363 174.891,291.838 176.531,292.056 176.936 C 293.620 179.843,294.032 198.887,292.655 204.600 C 291.501 209.387,290.387 213.335,290.069 213.763 C 289.890 214.003,289.501 215.010,289.204 216.000 C 288.736 217.560,288.101 218.988,286.265 222.600 C 286.041 223.040,285.575 223.892,285.229 224.492 C 284.726 225.365,284.697 225.727,285.082 226.292 C 287.143 229.316,293.582 241.813,293.593 242.811 C 293.597 243.147,293.844 243.777,294.142 244.211 C 294.441 244.645,294.996 245.990,295.378 247.200 C 295.759 248.410,296.313 249.942,296.609 250.605 C 296.905 251.267,297.450 253.157,297.820 254.805 C 298.191 256.452,298.634 257.980,298.806 258.200 C 300.141 259.910,300.340 272.234,299.074 274.772 C 297.853 277.220,297.561 277.134,307.559 277.273 C 315.608 277.385,316.811 277.485,317.490 278.100 C 317.915 278.485,318.469 278.800,318.720 278.800 C 319.128 278.800,321.200 282.757,321.200 283.537 C 321.200 285.938,317.954 289.054,315.104 289.389 C 308.519 290.163,81.001 289.401,79.655 288.600 C 75.429 286.086,75.612 280.503,79.997 278.157 C 81.729 277.231,82.073 277.200,90.537 277.200 C 98.715 277.200,99.266 277.154,98.991 276.500 C 97.254 272.374,97.358 259.403,99.147 257.024 C 99.322 256.791,99.702 255.520,99.992 254.200 C 100.281 252.880,100.730 251.440,100.989 251.000 C 101.248 250.560,101.699 249.300,101.990 248.200 C 102.281 247.100,102.963 245.210,103.505 244.000 C 105.676 239.150,107.248 235.769,107.597 235.200 C 107.800 234.870,108.421 233.700,108.979 232.600 C 110.216 230.158,111.437 228.134,112.443 226.855 C 113.185 225.911,113.185 225.870,112.431 224.647 C 110.038 220.766,107.487 214.650,106.573 210.600 C 106.225 209.060,105.797 207.524,105.621 207.187 C 104.132 204.327,103.645 186.041,104.898 180.000 C 105.826 175.524,107.107 170.755,107.745 169.400 C 108.056 168.740,108.629 167.300,109.019 166.200 C 109.408 165.100,109.838 164.110,109.974 164.000 C 110.111 163.890,110.566 162.990,110.986 162.000 C 111.406 161.010,112.029 159.869,112.370 159.464 C 112.930 158.799,112.929 158.683,112.364 158.264 C 106.564 153.963,101.140 145.031,99.987 137.884 C 98.439 128.280,100.810 118.725,106.611 111.186 C 109.745 107.113,116.899 101.600,119.051 101.600 C 119.316 101.600,119.593 101.442,119.667 101.249 C 120.304 99.572,132.785 97.796,137.400 98.726 C 140.878 99.427,145.600 100.878,145.600 101.246 C 145.600 101.441,145.852 101.600,146.160 101.600 C 146.468 101.600,147.656 102.230,148.800 103.000 C 149.944 103.770,151.014 104.400,151.177 104.400 C 151.632 104.400,157.879 110.982,158.690 112.315 L 159.406 113.493 161.803 112.370 C 163.121 111.752,164.427 111.236,164.704 111.224 C 164.982 111.211,165.972 110.848,166.904 110.419 C 167.837 109.989,169.575 109.397,170.767 109.102 C 172.100 108.773,173.100 108.268,173.367 107.790 C 173.605 107.362,174.115 106.774,174.500 106.483 C 174.885 106.193,175.203 105.740,175.208 105.477 C 175.233 103.859,183.278 97.683,188.469 95.298 C 190.787 94.232,192.025 93.872,196.200 93.050 C 198.425 92.612,206.401 92.843,208.277 93.401 M198.654 105.662 C 191.734 106.985,185.635 112.033,182.297 119.200 C 181.426 121.070,180.508 123.034,180.257 123.565 C 178.640 126.981,171.200 126.542,171.200 123.031 C 171.200 122.252,171.047 122.251,168.470 123.016 C 155.840 126.767,137.706 141.507,128.630 155.400 C 127.768 156.720,126.752 158.263,126.371 158.830 C 125.029 160.830,121.565 167.665,120.753 169.917 C 120.300 171.173,119.680 172.759,119.374 173.441 C 114.993 183.227,115.464 200.850,120.429 212.900 C 121.792 216.207,122.168 216.580,122.561 215.014 C 122.864 213.807,126.561 209.951,128.256 209.074 C 130.947 207.683,134.028 207.614,195.795 207.565 C 229.458 207.538,258.575 207.399,260.500 207.256 C 262.425 207.113,264.000 207.111,264.000 207.252 C 264.000 207.394,264.787 207.627,265.748 207.771 C 266.710 207.916,268.176 208.380,269.007 208.804 C 269.838 209.227,270.676 209.477,270.869 209.357 C 271.062 209.238,271.194 209.289,271.163 209.470 C 271.024 210.270,271.243 210.551,271.585 210.011 C 271.897 209.518,272.004 209.550,272.247 210.211 C 272.636 211.272,273.869 212.850,274.274 212.805 C 274.453 212.785,274.656 213.125,274.725 213.562 C 274.813 214.120,275.050 214.281,275.525 214.103 C 276.117 213.881,276.131 213.934,275.643 214.535 C 275.337 214.911,275.176 215.309,275.286 215.419 C 275.938 216.071,278.055 210.908,279.722 204.600 C 281.535 197.742,281.597 187.057,279.865 180.200 C 278.626 175.299,276.472 169.072,275.943 168.867 C 275.755 168.793,275.600 168.433,275.599 168.067 C 275.599 167.427,272.164 160.412,271.650 160.000 C 271.512 159.890,271.051 159.170,270.624 158.400 C 269.295 156.003,267.721 154.014,267.389 154.313 C 267.215 154.471,267.204 154.370,267.366 154.089 C 267.549 153.771,266.920 152.714,265.698 151.289 C 264.618 150.030,263.619 148.681,263.476 148.290 C 263.288 147.775,262.956 147.646,262.263 147.820 C 261.603 147.986,261.234 147.865,261.067 147.430 C 260.934 147.083,260.999 146.800,261.213 146.800 C 261.426 146.800,261.600 146.980,261.600 147.200 C 261.600 147.420,261.786 147.600,262.014 147.600 C 262.292 147.600,262.298 147.370,262.033 146.900 C 261.502 145.958,256.180 140.400,255.809 140.400 C 255.647 140.400,255.156 139.944,254.717 139.386 C 254.140 138.652,253.682 138.438,253.060 138.612 C 252.378 138.803,252.324 138.766,252.800 138.432 C 253.339 138.055,253.101 137.826,252.300 137.953 C 252.135 137.979,252.000 137.736,252.000 137.414 C 252.000 137.092,251.595 136.632,251.100 136.392 C 250.258 135.984,250.248 135.995,250.942 136.553 C 251.350 136.881,251.589 137.386,251.473 137.675 C 251.306 138.093,251.257 138.089,251.232 137.651 C 251.209 137.261,251.055 137.221,250.700 137.511 C 250.347 137.799,250.027 137.732,249.613 137.284 C 249.094 136.721,249.102 136.677,249.684 136.900 C 250.884 137.361,249.708 135.036,248.329 134.222 C 247.643 133.817,247.201 133.678,247.347 133.915 C 247.493 134.151,247.449 134.446,247.248 134.570 C 247.048 134.694,246.781 134.526,246.654 134.198 C 246.528 133.869,246.194 133.598,245.913 133.596 C 245.631 133.593,244.545 132.803,243.500 131.839 C 242.455 130.875,241.600 130.169,241.600 130.271 C 241.600 130.494,239.284 128.882,238.269 127.952 C 237.596 127.336,229.502 123.200,228.969 123.200 C 228.841 123.200,228.853 123.732,228.996 124.381 C 229.492 126.641,225.474 131.641,223.679 130.996 C 223.387 130.891,223.273 130.994,223.419 131.232 C 223.563 131.464,223.302 131.753,222.840 131.874 C 222.378 131.994,222.000 132.228,222.000 132.392 C 222.000 133.058,214.056 134.949,212.977 134.540 C 211.772 134.082,211.108 133.304,211.642 132.974 C 211.888 132.822,212.230 132.924,212.401 133.202 C 212.624 133.563,212.789 133.463,212.983 132.853 C 213.354 131.683,212.887 130.407,212.073 130.368 C 211.530 130.343,211.516 130.297,212.000 130.133 C 212.330 130.020,213.167 129.674,213.860 129.364 C 214.554 129.054,215.411 128.800,215.766 128.800 C 216.121 128.800,216.723 128.642,217.105 128.449 C 219.066 127.457,220.800 126.851,220.800 127.157 C 220.800 127.627,219.777 128.444,219.516 128.183 C 219.400 128.067,219.393 128.429,219.499 128.986 C 219.606 129.544,219.860 130.000,220.064 130.000 C 220.268 130.000,220.382 129.704,220.318 129.341 C 220.253 128.979,220.425 128.604,220.700 128.508 C 221.013 128.399,221.113 128.562,220.967 128.942 C 220.838 129.277,220.914 129.875,221.136 130.271 C 221.433 130.802,221.490 130.469,221.352 128.995 C 221.176 127.113,221.202 127.045,221.805 127.800 C 222.433 128.586,222.437 128.584,222.022 127.726 C 221.790 127.246,221.600 126.082,221.600 125.141 C 221.600 120.276,213.313 116.812,205.861 118.563 C 199.756 119.997,198.424 116.105,203.567 111.859 C 209.457 106.996,207.116 104.043,198.654 105.662 M217.738 129.803 C 217.337 130.668,217.371 130.800,217.995 130.800 C 218.751 130.800,219.361 129.784,218.978 129.164 C 218.604 128.559,218.224 128.754,217.738 129.803 M222.184 129.227 C 222.039 129.461,222.028 129.761,222.160 129.893 C 222.292 130.025,222.400 129.911,222.400 129.640 C 222.400 129.319,222.716 129.235,223.300 129.399 C 224.005 129.597,224.070 129.561,223.600 129.232 C 222.835 128.696,222.512 128.695,222.184 129.227 M211.061 132.148 C 210.394 133.433,209.918 132.703,210.465 131.232 C 210.704 130.588,210.958 130.398,211.224 130.664 C 211.490 130.930,211.435 131.426,211.061 132.148 M252.222 139.235 C 252.369 139.474,252.314 139.846,252.099 140.061 C 251.843 140.317,251.632 140.166,251.491 139.626 C 251.264 138.758,251.762 138.491,252.222 139.235 M255.308 141.080 C 255.918 141.203,256.503 141.443,256.609 141.614 C 256.715 141.785,256.422 141.826,255.960 141.705 C 255.473 141.578,254.951 141.720,254.721 142.043 C 254.411 142.479,254.373 142.448,254.550 141.900 C 254.723 141.361,254.547 141.200,253.784 141.200 C 252.893 141.200,252.844 141.281,253.293 142.000 C 253.568 142.440,253.929 142.800,254.096 142.800 C 254.263 142.800,254.400 143.004,254.400 143.253 C 254.400 143.502,254.789 144.043,255.264 144.456 C 255.739 144.868,256.009 145.324,255.864 145.469 C 255.719 145.614,255.546 145.658,255.481 145.567 C 255.415 145.475,254.575 144.439,253.614 143.265 C 251.879 141.145,251.873 139.988,253.600 140.632 C 253.930 140.755,254.699 140.957,255.308 141.080 M257.036 144.697 C 256.902 144.832,256.529 144.595,256.209 144.171 C 255.318 142.993,255.490 142.531,256.440 143.551 C 256.902 144.047,257.170 144.563,257.036 144.697 M261.200 149.443 C 261.200 149.713,261.416 150.005,261.680 150.093 C 261.980 150.193,261.905 150.351,261.480 150.514 C 260.986 150.703,260.800 150.566,260.800 150.011 C 260.800 149.591,260.620 149.136,260.400 149.000 C 260.180 148.864,260.006 148.448,260.013 148.076 C 260.028 147.250,261.200 148.599,261.200 149.443 M264.013 150.575 C 264.544 151.275,264.533 151.325,263.900 151.087 C 263.368 150.888,263.200 151.033,263.200 151.693 C 263.200 152.271,263.067 152.427,262.800 152.160 C 262.533 151.893,262.565 151.410,262.896 150.709 C 263.168 150.131,263.399 149.690,263.409 149.729 C 263.419 149.768,263.690 150.149,264.013 150.575 M170.890 157.760 C 185.244 164.716,178.205 188.238,160.470 192.583 L 157.539 193.301 159.116 194.007 C 168.607 198.256,159.537 207.112,148.532 204.341 C 140.432 202.302,142.602 192.906,151.200 192.787 L 153.400 192.757 150.934 191.566 C 138.390 185.506,140.717 167.817,155.167 159.381 C 159.743 156.711,167.149 155.947,170.890 157.760 M236.880 157.242 C 243.429 158.609,251.555 166.089,254.050 173.046 C 256.783 180.669,252.769 189.733,245.711 191.871 L 243.400 192.572 246.414 192.831 C 251.398 193.260,254.000 195.339,254.000 198.891 C 254.000 205.159,238.547 207.296,235.406 201.463 C 233.880 198.629,236.191 193.972,239.347 193.522 C 239.816 193.455,238.670 192.988,236.800 192.484 C 232.593 191.351,230.744 190.470,228.274 188.425 C 212.353 175.237,218.385 153.382,236.880 157.242 M272.226 163.907 C 272.078 164.056,271.789 163.912,271.584 163.588 C 270.987 162.643,271.144 162.287,271.848 162.990 C 272.204 163.347,272.374 163.759,272.226 163.907 M263.876 169.100 C 263.775 169.485,263.693 169.170,263.693 168.400 C 263.693 167.630,263.775 167.315,263.876 167.700 C 263.976 168.085,263.976 168.715,263.876 169.100 M202.308 172.610 C 209.391 174.713,210.203 183.485,203.457 185.022 L 202.314 185.282 204.040 187.041 C 206.095 189.135,206.245 189.153,208.245 187.564 C 210.955 185.410,214.000 186.706,214.000 190.014 C 214.000 195.653,203.632 197.595,199.496 192.730 L 198.792 191.902 198.011 192.895 C 194.393 197.495,184.000 195.454,184.000 190.144 C 184.000 188.317,184.344 187.650,185.629 186.985 C 187.219 186.163,187.687 186.239,189.400 187.600 C 191.363 189.160,191.776 189.119,193.724 187.170 L 195.354 185.541 193.777 184.821 C 184.216 180.456,191.865 169.508,202.308 172.610 M154.955 173.592 C 154.491 173.780,153.726 174.423,153.255 175.021 C 150.456 178.579,156.124 182.817,159.100 179.391 C 161.480 176.652,158.322 172.232,154.955 173.592 M239.743 173.769 C 237.271 174.863,237.037 178.624,239.353 180.037 C 243.180 182.370,247.096 178.068,244.100 174.821 C 242.755 173.363,241.401 173.036,239.743 173.769 M258.567 201.743 C 258.428 202.104,258.032 202.400,257.687 202.400 C 257.169 202.400,257.193 202.271,257.830 201.652 C 258.718 200.789,258.923 200.814,258.567 201.743 M256.549 203.306 C 256.081 203.578,255.320 204.029,254.858 204.309 C 254.115 204.760,254.048 204.736,254.277 204.109 C 254.512 203.464,254.457 203.469,253.665 204.164 C 253.187 204.585,252.702 204.835,252.588 204.721 C 252.243 204.376,253.459 203.573,254.656 203.355 C 255.275 203.243,255.861 203.072,255.958 202.976 C 256.054 202.879,256.418 202.803,256.767 202.806 C 257.230 202.810,257.171 202.945,256.549 203.306 " stroke="none" fill="#fbfbfb" fill-rule="evenodd"></path><path id="path2" d="M191.300 94.048 C 190.585 94.254,190.000 94.511,190.000 94.619 C 190.000 94.909,192.138 94.353,192.580 93.948 C 193.016 93.549,193.030 93.548,191.300 94.048 M127.027 98.747 C 126.381 98.886,128.884 99.000,132.587 99.000 C 136.317 99.000,138.625 98.876,137.760 98.723 C 135.851 98.384,128.637 98.400,127.027 98.747 M259.423 98.747 C 258.775 98.886,261.285 99.000,265.000 99.000 C 268.715 99.000,271.225 98.886,270.577 98.747 C 269.930 98.608,267.420 98.495,265.000 98.495 C 262.580 98.495,260.070 98.608,259.423 98.747 M245.375 105.300 L 244.200 106.600 245.500 105.425 C 246.215 104.779,246.800 104.194,246.800 104.125 C 246.800 103.816,246.470 104.088,245.375 105.300 M283.600 104.077 C 283.600 104.157,284.725 105.196,286.100 106.387 C 287.475 107.577,288.150 108.049,287.600 107.436 C 286.603 106.324,283.600 103.803,283.600 104.077 M153.800 107.200 C 155.328 108.740,156.669 110.000,156.779 110.000 C 156.889 110.000,155.728 108.740,154.200 107.200 C 152.672 105.660,151.331 104.400,151.221 104.400 C 151.111 104.400,152.272 105.660,153.800 107.200 M109.171 108.300 C 107.362 110.210,105.290 112.720,106.446 111.600 C 107.760 110.328,111.307 106.400,111.143 106.400 C 111.048 106.400,110.160 107.255,109.171 108.300 M241.734 108.700 C 240.642 109.965,239.609 111.270,239.439 111.600 C 239.270 111.930,239.461 111.813,239.865 111.341 C 243.220 107.418,244.051 106.400,243.897 106.400 C 243.800 106.400,242.826 107.435,241.734 108.700 M206.694 108.503 L 205.988 109.800 206.794 108.856 C 207.480 108.052,207.846 107.194,207.500 107.203 C 207.445 107.204,207.082 107.789,206.694 108.503 M220.600 107.600 C 221.040 107.789,221.760 107.938,222.200 107.932 C 222.843 107.923,222.804 107.857,222.000 107.600 C 220.632 107.162,219.581 107.162,220.600 107.600 M162.900 111.834 C 162.185 112.146,161.600 112.482,161.600 112.580 C 161.600 112.875,163.984 111.949,164.224 111.561 C 164.491 111.129,164.529 111.121,162.900 111.834 M232.974 111.558 C 233.097 111.758,233.780 112.124,234.490 112.371 C 235.988 112.894,235.535 112.379,233.875 111.673 C 233.256 111.409,232.850 111.358,232.974 111.558 M291.775 112.532 C 292.391 113.339,292.976 114.000,293.075 114.000 C 293.353 114.000,291.621 111.660,291.109 111.344 C 290.859 111.189,291.159 111.724,291.775 112.532 M209.300 117.876 C 209.685 117.976,210.315 117.976,210.700 117.876 C 211.085 117.775,210.770 117.693,210.000 117.693 C 209.230 117.693,208.915 117.775,209.300 117.876 M217.400 119.479 C 218.688 120.794,221.281 122.843,220.400 121.850 C 219.850 121.229,218.860 120.350,218.200 119.896 C 217.540 119.442,217.180 119.254,217.400 119.479 M296.640 122.268 C 297.279 124.390,297.815 125.217,297.374 123.399 C 296.987 121.804,296.460 120.400,296.249 120.400 C 296.155 120.400,296.331 121.241,296.640 122.268 M171.212 123.078 C 171.205 123.340,171.605 123.979,172.100 124.497 C 172.595 125.015,172.800 125.160,172.556 124.820 C 172.312 124.479,171.912 123.840,171.668 123.400 C 171.424 122.960,171.219 122.815,171.212 123.078 M232.000 124.600 C 232.550 124.914,233.180 125.172,233.400 125.172 C 233.620 125.172,233.350 124.914,232.800 124.600 C 232.250 124.286,231.620 124.028,231.400 124.028 C 231.180 124.028,231.450 124.286,232.000 124.600 M235.600 126.152 C 235.600 126.277,236.123 126.650,236.762 126.980 C 237.401 127.311,238.166 127.816,238.462 128.104 C 239.236 128.856,241.600 130.488,241.600 130.271 C 241.600 130.169,242.455 130.875,243.500 131.839 C 244.545 132.803,245.616 133.593,245.880 133.596 C 246.144 133.598,246.518 133.881,246.710 134.225 C 247.016 134.772,247.121 134.777,247.547 134.264 C 248.118 133.576,246.222 131.966,245.244 132.309 C 244.932 132.418,244.800 132.324,244.943 132.092 C 245.083 131.866,243.893 130.878,242.299 129.896 C 237.888 127.179,235.600 125.900,235.600 126.152 M221.462 127.031 C 221.332 127.454,221.296 128.518,221.382 129.395 C 221.502 130.621,221.445 130.823,221.136 130.271 C 220.914 129.875,220.838 129.277,220.967 128.942 C 221.113 128.562,221.013 128.399,220.700 128.508 C 220.425 128.604,220.253 128.979,220.318 129.341 C 220.382 129.704,220.268 130.000,220.064 130.000 C 219.860 130.000,219.606 129.544,219.499 128.986 C 219.393 128.429,219.400 128.067,219.516 128.183 C 219.777 128.444,220.800 127.627,220.800 127.157 C 220.800 126.851,219.066 127.457,217.105 128.449 C 216.723 128.642,216.121 128.800,215.766 128.800 C 215.411 128.800,214.554 129.054,213.860 129.364 C 213.167 129.674,212.330 130.020,212.000 130.133 C 211.516 130.297,211.530 130.343,212.073 130.368 C 212.887 130.407,213.354 131.683,212.983 132.853 C 212.789 133.463,212.624 133.563,212.401 133.202 C 212.230 132.924,211.888 132.822,211.642 132.974 C 211.108 133.304,211.772 134.082,212.977 134.540 C 214.056 134.949,222.000 133.058,222.000 132.392 C 222.000 132.228,222.378 131.994,222.840 131.874 C 223.375 131.734,223.571 131.476,223.378 131.165 C 223.186 130.854,223.243 130.779,223.535 130.960 C 223.787 131.116,224.796 130.691,225.776 130.016 C 227.691 128.699,228.881 127.334,227.099 128.500 C 225.338 129.652,223.207 129.081,222.193 127.187 C 221.728 126.319,221.683 126.309,221.462 127.031 M218.978 129.164 C 219.361 129.784,218.751 130.800,217.995 130.800 C 217.371 130.800,217.337 130.668,217.738 129.803 C 218.224 128.754,218.604 128.559,218.978 129.164 M223.600 129.232 C 224.070 129.561,224.005 129.597,223.300 129.399 C 222.716 129.235,222.400 129.319,222.400 129.640 C 222.400 129.911,222.292 130.025,222.160 129.893 C 221.434 129.168,222.687 128.593,223.600 129.232 M210.465 131.232 C 209.918 132.703,210.394 133.433,211.061 132.148 C 211.435 131.426,211.490 130.930,211.224 130.664 C 210.958 130.398,210.704 130.588,210.465 131.232 M249.443 135.433 C 249.095 136.340,249.155 136.691,249.551 136.066 C 249.810 135.658,249.938 135.721,250.099 136.336 C 250.260 136.951,250.159 137.082,249.668 136.894 C 249.101 136.676,249.095 136.722,249.613 137.284 C 250.027 137.732,250.347 137.799,250.700 137.511 C 251.055 137.221,251.208 137.261,251.228 137.651 C 251.244 137.953,251.411 137.840,251.600 137.400 C 251.894 136.716,251.948 136.701,251.972 137.300 C 251.987 137.685,252.135 137.979,252.300 137.953 C 253.104 137.826,253.339 138.056,252.800 138.444 C 252.305 138.800,252.331 138.833,252.951 138.631 C 253.819 138.348,254.914 139.093,254.534 139.707 C 254.384 139.949,254.470 140.004,254.738 139.838 C 254.992 139.681,255.200 139.743,255.200 139.976 C 255.200 140.209,255.425 140.393,255.700 140.384 C 256.197 140.367,253.933 138.168,251.143 135.956 C 249.918 134.985,249.647 134.901,249.443 135.433 M142.400 139.000 C 141.428 139.990,140.723 140.800,140.833 140.800 C 140.943 140.800,141.828 139.990,142.800 139.000 C 143.772 138.010,144.477 137.200,144.367 137.200 C 144.257 137.200,143.372 138.010,142.400 139.000 M251.491 139.626 C 251.632 140.166,251.843 140.317,252.099 140.061 C 252.513 139.647,252.187 138.800,251.614 138.800 C 251.427 138.800,251.372 139.172,251.491 139.626 M100.572 141.000 C 100.729 141.660,101.029 142.376,101.239 142.591 C 101.450 142.806,101.410 142.356,101.151 141.591 C 100.546 139.800,100.205 139.452,100.572 141.000 M252.433 140.769 C 251.980 141.058,252.215 141.556,253.614 143.265 C 254.575 144.439,255.415 145.475,255.481 145.567 C 255.546 145.658,255.719 145.614,255.864 145.469 C 256.009 145.324,255.739 144.868,255.264 144.456 C 254.789 144.043,254.400 143.502,254.400 143.253 C 254.400 143.004,254.263 142.800,254.096 142.800 C 253.929 142.800,253.568 142.440,253.293 142.000 C 252.844 141.281,252.893 141.200,253.784 141.200 C 254.547 141.200,254.723 141.361,254.550 141.900 C 254.373 142.448,254.411 142.479,254.721 142.043 C 254.951 141.720,255.473 141.578,255.960 141.705 C 256.422 141.826,256.715 141.785,256.609 141.614 C 256.503 141.443,255.918 141.203,255.308 141.080 C 254.699 140.957,253.930 140.755,253.600 140.632 C 253.270 140.509,252.745 140.571,252.433 140.769 M296.629 141.429 C 296.481 142.015,296.438 142.572,296.532 142.666 C 296.627 142.760,296.824 142.358,296.971 141.771 C 297.119 141.185,297.162 140.628,297.068 140.534 C 296.973 140.440,296.776 140.842,296.629 141.429 M257.200 141.514 C 257.200 141.713,257.586 142.219,258.058 142.638 C 258.910 143.395,258.913 143.394,258.456 142.522 C 257.946 141.550,257.200 140.951,257.200 141.514 M136.786 144.700 L 134.600 147.000 136.900 144.814 C 138.165 143.611,139.200 142.576,139.200 142.514 C 139.200 142.217,138.818 142.563,136.786 144.700 M255.613 143.025 C 255.633 143.630,256.769 144.964,257.036 144.697 C 257.170 144.563,256.902 144.047,256.440 143.551 C 255.978 143.055,255.606 142.818,255.613 143.025 M259.600 143.785 C 259.600 143.960,260.244 144.816,261.031 145.687 C 261.818 146.558,262.334 147.390,262.176 147.536 C 262.019 147.681,261.810 147.575,261.712 147.300 C 261.614 147.025,261.374 146.800,261.179 146.800 C 260.984 146.800,260.925 147.061,261.048 147.381 C 261.183 147.733,261.725 147.930,262.421 147.881 L 263.570 147.800 261.685 145.808 C 260.648 144.713,259.755 143.738,259.700 143.642 C 259.645 143.545,259.600 143.610,259.600 143.785 M260.013 148.076 C 260.006 148.448,260.180 148.864,260.400 149.000 C 260.620 149.136,260.800 149.591,260.800 150.011 C 260.800 150.566,260.986 150.703,261.480 150.514 C 261.905 150.351,261.980 150.193,261.680 150.093 C 261.416 150.005,261.200 149.713,261.200 149.443 C 261.200 148.599,260.028 147.250,260.013 148.076 M263.600 148.730 C 263.600 148.912,264.050 149.483,264.600 150.000 C 265.577 150.918,265.994 151.891,265.200 151.400 C 264.980 151.264,264.800 151.358,264.800 151.610 C 264.800 151.861,265.025 151.985,265.300 151.884 C 265.575 151.784,266.237 152.084,266.771 152.551 C 267.305 153.018,266.890 152.275,265.848 150.900 C 263.987 148.445,263.600 148.071,263.600 148.730 M292.400 150.400 C 291.930 151.060,291.636 151.600,291.746 151.600 C 291.856 151.600,292.330 151.060,292.800 150.400 C 293.270 149.740,293.564 149.200,293.454 149.200 C 293.344 149.200,292.870 149.740,292.400 150.400 M262.896 150.709 C 262.565 151.410,262.533 151.893,262.800 152.160 C 263.067 152.427,263.200 152.271,263.200 151.693 C 263.200 151.033,263.368 150.888,263.900 151.087 C 264.533 151.325,264.544 151.275,264.013 150.575 C 263.690 150.149,263.419 149.768,263.409 149.729 C 263.399 149.690,263.168 150.131,262.896 150.709 M267.362 154.062 C 267.185 154.348,267.252 154.415,267.538 154.238 C 267.792 154.081,268.001 154.098,268.002 154.276 C 268.003 154.454,268.462 155.140,269.022 155.800 C 270.040 156.999,270.040 156.999,268.967 155.300 C 267.778 153.417,267.766 153.408,267.362 154.062 M270.691 158.490 C 271.081 159.310,271.541 159.985,271.714 159.990 C 272.072 160.001,271.562 158.980,270.620 157.800 C 270.106 157.156,270.120 157.291,270.691 158.490 M238.433 157.751 C 238.842 158.121,242.000 159.595,242.000 159.416 C 242.000 159.189,238.981 157.600,238.549 157.600 C 238.394 157.600,238.342 157.668,238.433 157.751 M174.400 160.600 C 175.146 161.370,175.847 162.000,175.957 162.000 C 176.067 162.000,175.546 161.370,174.800 160.600 C 174.054 159.830,173.353 159.200,173.243 159.200 C 173.133 159.200,173.654 159.830,174.400 160.600 M243.200 160.111 C 243.200 160.187,243.785 160.678,244.500 161.201 C 245.304 161.790,245.584 161.887,245.233 161.455 C 244.700 160.799,243.200 159.807,243.200 160.111 M273.200 162.800 C 273.649 163.680,274.106 164.400,274.216 164.400 C 274.326 164.400,274.049 163.680,273.600 162.800 C 273.151 161.920,272.694 161.200,272.584 161.200 C 272.474 161.200,272.751 161.920,273.200 162.800 M150.575 162.900 L 149.400 164.200 150.700 163.025 C 151.415 162.379,152.000 161.794,152.000 161.725 C 152.000 161.416,151.670 161.688,150.575 162.900 M271.206 162.671 C 271.218 163.284,271.955 164.178,272.226 163.907 C 272.374 163.759,272.204 163.347,271.848 162.990 C 271.491 162.634,271.203 162.491,271.206 162.671 M275.028 166.200 C 275.179 166.640,275.391 167.405,275.498 167.900 C 275.605 168.395,275.821 168.800,275.977 168.800 C 276.134 168.800,276.765 170.247,277.381 172.016 C 277.997 173.785,278.575 175.159,278.665 175.068 C 278.907 174.826,276.669 168.859,275.639 167.000 C 275.152 166.120,274.877 165.760,275.028 166.200 M263.693 168.400 C 263.693 169.170,263.775 169.485,263.876 169.100 C 263.976 168.715,263.976 168.085,263.876 167.700 C 263.775 167.315,263.693 167.630,263.693 168.400 M178.509 170.800 C 178.509 171.790,178.587 172.195,178.682 171.700 C 178.778 171.205,178.778 170.395,178.682 169.900 C 178.587 169.405,178.509 169.810,178.509 170.800 M198.300 172.282 C 198.795 172.378,199.605 172.378,200.100 172.282 C 200.595 172.187,200.190 172.109,199.200 172.109 C 198.210 172.109,197.805 172.187,198.300 172.282 M204.800 173.725 C 204.800 173.794,205.385 174.379,206.100 175.025 L 207.400 176.200 206.225 174.900 C 205.130 173.688,204.800 173.416,204.800 173.725 M254.867 178.050 C 254.830 178.847,254.711 180.108,254.601 180.850 L 254.403 182.200 254.823 180.860 C 255.054 180.123,255.174 178.863,255.089 178.060 L 254.934 176.600 254.867 178.050 M105.249 177.800 C 105.216 178.240,105.096 179.050,104.983 179.600 L 104.777 180.600 105.206 179.619 C 105.442 179.079,105.561 178.269,105.472 177.819 C 105.313 177.021,105.307 177.021,105.249 177.800 M142.493 178.400 C 142.493 179.170,142.575 179.485,142.676 179.100 C 142.776 178.715,142.776 178.085,142.676 177.700 C 142.575 177.315,142.493 177.630,142.493 178.400 M189.449 177.815 C 189.312 178.173,189.218 178.856,189.241 179.333 C 189.267 179.881,189.403 179.686,189.610 178.803 C 189.960 177.316,189.865 176.733,189.449 177.815 M292.272 179.000 C 292.399 180.100,292.569 181.075,292.651 181.167 C 292.932 181.482,292.720 178.999,292.380 178.000 C 292.151 177.326,292.116 177.651,292.272 179.000 M117.646 178.067 C 117.621 178.434,117.496 179.064,117.370 179.467 C 117.152 180.162,117.163 180.163,117.597 179.487 C 117.848 179.096,117.973 178.466,117.873 178.087 C 117.711 177.468,117.688 177.466,117.646 178.067 M208.093 179.200 C 208.093 179.970,208.175 180.285,208.276 179.900 C 208.376 179.515,208.376 178.885,208.276 178.500 C 208.175 178.115,208.093 178.430,208.093 179.200 M153.688 179.813 C 154.286 180.443,154.847 180.877,154.935 180.779 C 155.023 180.680,154.533 180.165,153.847 179.634 L 152.600 178.669 153.688 179.813 M279.668 179.400 C 279.674 179.840,279.824 180.650,280.000 181.200 L 280.320 182.200 280.332 181.200 C 280.338 180.650,280.189 179.840,280.000 179.400 L 279.656 178.600 279.668 179.400 M156.400 180.800 C 155.576 181.064,155.541 181.126,156.200 181.154 C 156.640 181.173,157.270 181.013,157.600 180.800 C 158.301 180.347,157.814 180.347,156.400 180.800 M280.650 186.450 C 280.317 188.117,280.640 188.440,281.000 186.800 C 281.152 186.109,281.193 185.459,281.091 185.358 C 280.989 185.256,280.791 185.747,280.650 186.450 M203.600 187.000 C 204.346 187.770,205.047 188.400,205.157 188.400 C 205.267 188.400,204.746 187.770,204.000 187.000 C 203.254 186.230,202.553 185.600,202.443 185.600 C 202.333 185.600,202.854 186.230,203.600 187.000 M207.878 187.813 C 207.260 188.356,206.914 188.800,207.108 188.800 C 207.302 188.800,207.883 188.350,208.400 187.800 C 209.595 186.528,209.331 186.534,207.878 187.813 M116.144 192.400 C 116.144 194.490,116.212 195.345,116.294 194.300 C 116.376 193.255,116.376 191.545,116.294 190.500 C 116.212 189.455,116.144 190.310,116.144 192.400 M184.012 191.094 C 184.005 191.365,184.495 192.094,185.100 192.713 C 185.705 193.332,185.910 193.470,185.555 193.019 C 185.200 192.569,184.710 191.840,184.467 191.400 C 184.223 190.960,184.019 190.822,184.012 191.094 M281.301 192.200 C 281.305 193.080,281.387 193.393,281.483 192.895 C 281.579 192.398,281.575 191.678,281.475 191.295 C 281.375 190.913,281.296 191.320,281.301 192.200 M153.400 192.698 C 153.935 193.239,157.201 193.558,158.202 193.168 C 158.794 192.937,158.573 192.849,157.350 192.828 C 156.442 192.813,155.093 192.686,154.350 192.547 C 153.442 192.377,153.131 192.427,153.400 192.698 M240.400 192.749 C 237.441 193.170,239.787 193.422,244.400 193.178 C 246.710 193.056,247.678 192.921,246.550 192.878 C 245.423 192.835,243.982 192.731,243.350 192.646 C 242.718 192.562,241.390 192.608,240.400 192.749 M191.600 195.200 L 189.400 195.470 191.400 195.507 C 192.500 195.527,193.760 195.389,194.200 195.200 C 195.102 194.812,194.762 194.812,191.600 195.200 M206.400 195.200 L 203.800 195.462 206.200 195.503 C 207.520 195.525,208.960 195.389,209.400 195.200 C 210.283 194.821,210.167 194.821,206.400 195.200 M234.901 199.400 C 234.905 200.280,234.987 200.593,235.083 200.095 C 235.179 199.598,235.175 198.878,235.075 198.495 C 234.975 198.113,234.896 198.520,234.901 199.400 M257.830 201.652 C 257.193 202.271,257.169 202.400,257.687 202.400 C 258.032 202.400,258.428 202.104,258.567 201.743 C 258.923 200.814,258.718 200.789,257.830 201.652 M279.675 204.404 C 279.406 205.568,279.255 206.588,279.338 206.671 C 279.586 206.919,280.501 203.304,280.325 202.775 C 280.236 202.508,279.943 203.241,279.675 204.404 M255.958 202.976 C 255.861 203.072,255.275 203.243,254.656 203.355 C 253.459 203.573,252.243 204.376,252.588 204.721 C 252.702 204.835,253.187 204.585,253.665 204.164 C 254.457 203.469,254.512 203.464,254.277 204.109 C 254.048 204.736,254.115 204.760,254.858 204.309 C 255.320 204.029,256.081 203.578,256.549 203.306 C 257.171 202.945,257.230 202.810,256.767 202.806 C 256.418 202.803,256.054 202.879,255.958 202.976 M117.450 204.800 C 117.590 205.570,117.861 206.560,118.054 207.000 C 118.294 207.549,118.324 207.361,118.150 206.400 C 118.010 205.630,117.739 204.640,117.546 204.200 C 117.306 203.651,117.276 203.839,117.450 204.800 M292.222 205.022 C 292.072 205.825,292.028 206.562,292.126 206.660 C 292.224 206.757,292.427 206.181,292.578 205.378 C 292.728 204.575,292.772 203.838,292.674 203.740 C 292.576 203.643,292.373 204.219,292.222 205.022 M105.058 205.200 C 105.375 206.925,105.602 207.251,105.594 205.967 C 105.591 205.435,105.411 204.730,105.194 204.400 C 104.918 203.978,104.877 204.215,105.058 205.200 M260.800 207.228 L 257.800 207.456 260.400 207.532 C 261.830 207.574,263.630 207.674,264.400 207.754 C 265.170 207.834,265.440 207.814,265.000 207.709 C 264.560 207.605,264.110 207.402,264.000 207.260 C 263.890 207.117,262.450 207.103,260.800 207.228 M159.100 207.900 C 173.235 207.958,196.365 207.958,210.500 207.900 C 224.635 207.842,213.070 207.794,184.800 207.794 C 156.530 207.794,144.965 207.842,159.100 207.900 M247.300 207.876 C 247.685 207.976,248.315 207.976,248.700 207.876 C 249.085 207.775,248.770 207.693,248.000 207.693 C 247.230 207.693,246.915 207.775,247.300 207.876 M271.600 210.107 C 271.600 210.411,272.094 211.097,272.697 211.630 C 273.493 212.334,273.603 212.372,273.097 211.769 C 272.714 211.311,272.400 210.737,272.400 210.492 C 272.400 210.247,272.220 209.936,272.000 209.800 C 271.780 209.664,271.600 209.802,271.600 210.107 M277.509 209.935 C 277.916 210.194,277.896 210.551,277.409 211.716 C 276.528 213.826,276.714 214.120,277.628 212.062 C 278.404 210.314,278.359 209.595,277.476 209.606 C 277.134 209.611,277.143 209.703,277.509 209.935 M124.975 211.700 L 123.800 213.000 125.100 211.825 C 126.312 210.730,126.584 210.400,126.275 210.400 C 126.206 210.400,125.621 210.985,124.975 211.700 M273.867 212.693 C 273.764 212.862,274.087 213.798,274.586 214.774 L 275.492 216.549 276.012 215.574 C 276.486 214.684,276.474 214.647,275.865 215.149 C 275.092 215.787,274.962 215.216,275.700 214.421 C 276.108 213.981,276.071 213.928,275.500 214.129 C 274.992 214.307,274.800 214.166,274.800 213.611 C 274.800 212.795,274.179 212.185,273.867 212.693 M287.800 218.800 C 287.459 219.460,287.269 220.000,287.379 220.000 C 287.489 220.000,287.859 219.460,288.200 218.800 C 288.541 218.140,288.731 217.600,288.621 217.600 C 288.511 217.600,288.141 218.140,287.800 218.800 M136.006 220.301 C 133.525 221.545,133.612 220.449,133.606 250.300 L 133.600 277.600 161.209 277.600 L 188.817 277.600 189.169 276.700 C 189.510 275.828,190.409 265.339,190.403 262.300 L 190.400 260.800 186.769 260.800 C 182.276 260.800,180.499 259.613,180.938 256.905 C 181.451 253.741,180.865 253.843,197.884 253.941 L 213.000 254.027 213.900 255.036 C 214.885 256.139,215.069 257.941,214.340 259.326 C 213.636 260.664,213.248 260.787,209.733 260.794 C 206.128 260.801,205.944 260.935,206.435 263.200 C 206.601 263.970,207.030 267.466,207.388 270.969 C 208.155 278.486,207.976 278.066,210.329 277.833 C 211.358 277.731,223.855 277.637,238.100 277.624 L 264.000 277.600 263.999 250.500 C 263.999 220.077,264.094 221.109,261.200 220.123 C 258.610 219.239,137.779 219.411,136.006 220.301 M111.455 223.000 C 112.380 224.579,112.400 224.603,112.400 224.111 C 112.400 223.879,112.029 223.264,111.576 222.744 L 110.753 221.800 111.455 223.000 M111.600 228.000 C 111.130 228.660,110.836 229.200,110.946 229.200 C 111.056 229.200,111.530 228.660,112.000 228.000 C 112.470 227.340,112.764 226.800,112.654 226.800 C 112.544 226.800,112.070 227.340,111.600 228.000 M103.115 244.610 C 102.992 245.045,102.769 245.760,102.620 246.200 C 102.471 246.640,102.642 246.494,103.000 245.876 C 103.358 245.258,103.581 244.542,103.495 244.286 C 103.410 244.030,103.239 244.176,103.115 244.610 M296.448 250.800 C 296.442 251.130,296.683 251.940,296.986 252.600 C 297.693 254.145,297.703 253.426,297.000 251.600 C 296.703 250.830,296.455 250.470,296.448 250.800 M98.606 258.900 C 98.461 259.835,98.256 260.960,98.152 261.400 C 98.004 262.021,98.045 262.066,98.331 261.600 C 98.741 260.935,99.359 257.200,99.060 257.200 C 98.956 257.200,98.751 257.965,98.606 258.900 M98.395 274.781 C 98.604 275.511,98.886 276.219,99.020 276.354 C 99.396 276.729,98.744 274.252,98.355 273.827 C 98.168 273.622,98.185 274.051,98.395 274.781 M93.000 277.200 L 86.600 277.431 93.100 277.515 C 97.223 277.569,99.600 277.454,99.600 277.200 C 99.600 276.980,99.555 276.838,99.500 276.885 C 99.445 276.931,96.520 277.073,93.000 277.200 M297.999 277.300 C 298.000 277.465,300.925 277.566,304.500 277.524 C 311.040 277.448,310.263 277.300,302.299 277.105 C 299.934 277.047,297.999 277.135,297.999 277.300 M81.000 277.600 C 79.981 278.038,81.032 278.038,82.400 277.600 C 83.204 277.343,83.243 277.277,82.600 277.268 C 82.160 277.262,81.440 277.411,81.000 277.600 M314.846 277.380 C 314.981 277.514,315.689 277.796,316.419 278.005 C 317.149 278.215,317.578 278.232,317.373 278.045 C 316.948 277.656,314.471 277.004,314.846 277.380 M76.400 283.376 C 76.400 284.133,76.538 284.838,76.707 284.943 C 76.876 285.047,76.948 284.428,76.865 283.566 C 76.681 281.632,76.400 281.518,76.400 283.376 " stroke="none" fill="#b2baca" fill-rule="evenodd"></path><path id="path3" d="M149.800 193.054 C 142.582 194.845,141.027 200.999,147.112 203.691 C 156.263 207.739,167.388 200.860,160.941 195.141 C 159.364 193.742,152.334 192.425,149.800 193.054 M238.897 193.936 C 234.175 195.854,233.706 201.900,238.137 203.746 C 242.652 205.628,250.825 204.328,253.162 201.357 C 257.360 196.020,247.017 190.639,238.897 193.936 " stroke="none" fill="#f484b0" fill-rule="evenodd"></path><path id="path4" d="M207.669 93.591 C 208.256 93.769,208.976 94.037,209.269 94.187 C 209.561 94.337,209.451 94.176,209.024 93.830 C 208.596 93.483,207.876 93.215,207.424 93.234 C 206.763 93.262,206.811 93.333,207.669 93.591 M187.500 95.829 C 186.005 96.640,186.096 96.978,187.600 96.200 C 188.260 95.859,188.800 95.494,188.800 95.390 C 188.800 95.132,188.757 95.147,187.500 95.829 M213.152 99.513 C 213.021 100.307,213.079 100.681,213.301 100.459 C 213.503 100.257,213.601 99.667,213.519 99.146 C 213.393 98.345,213.337 98.402,213.152 99.513 M180.785 100.029 L 179.400 101.258 180.900 100.181 C 182.226 99.230,182.657 98.800,182.285 98.800 C 182.222 98.800,181.547 99.353,180.785 100.029 M122.600 100.186 C 121.055 100.893,121.774 100.903,123.600 100.200 C 124.370 99.903,124.730 99.655,124.400 99.648 C 124.070 99.642,123.260 99.883,122.600 100.186 M140.400 99.827 C 142.183 100.527,143.355 100.795,142.978 100.418 C 142.757 100.197,141.951 99.920,141.188 99.804 C 140.424 99.687,140.070 99.698,140.400 99.827 M254.475 100.273 C 253.526 100.609,252.821 100.954,252.907 101.041 C 253.090 101.223,256.800 100.005,256.800 99.762 C 256.800 99.512,256.345 99.612,254.475 100.273 M273.200 99.827 C 274.983 100.527,276.155 100.795,275.778 100.418 C 275.557 100.197,274.751 99.920,273.988 99.804 C 273.224 99.687,272.870 99.698,273.200 99.827 M117.500 102.229 C 116.895 102.557,116.400 102.904,116.400 103.000 C 116.400 103.256,117.677 102.750,118.589 102.134 C 119.651 101.415,118.874 101.483,117.500 102.229 M146.000 101.779 C 146.000 101.889,146.540 102.259,147.200 102.600 C 147.860 102.941,148.400 103.131,148.400 103.021 C 148.400 102.911,147.860 102.541,147.200 102.200 C 146.540 101.859,146.000 101.669,146.000 101.779 M278.800 101.768 C 278.800 101.887,279.565 102.368,280.500 102.838 C 281.435 103.307,282.830 104.154,283.600 104.720 C 284.687 105.518,284.839 105.562,284.278 104.918 C 283.560 104.093,278.800 101.356,278.800 101.768 M246.785 104.429 L 245.400 105.658 246.900 104.581 C 248.226 103.630,248.657 103.200,248.285 103.200 C 248.222 103.200,247.547 103.753,246.785 104.429 M113.800 104.635 L 112.600 105.666 113.900 104.806 C 114.615 104.333,115.200 103.868,115.200 103.773 C 115.200 103.473,115.031 103.578,113.800 104.635 M149.600 103.725 C 149.600 103.824,150.261 104.409,151.068 105.025 C 151.876 105.641,152.411 105.941,152.256 105.691 C 151.940 105.179,149.600 103.447,149.600 103.725 M213.326 105.300 C 213.727 106.289,214.112 106.612,214.932 106.649 C 215.896 106.692,215.907 106.679,215.036 106.525 C 214.397 106.412,213.921 105.948,213.652 105.176 C 213.426 104.529,213.142 104.000,213.020 104.000 C 212.898 104.000,213.035 104.585,213.326 105.300 M201.400 105.073 C 204.757 105.288,206.008 105.608,206.872 106.472 C 207.328 106.928,207.622 107.053,207.526 106.750 C 207.175 105.638,204.704 104.798,202.000 104.873 C 199.696 104.936,199.628 104.959,201.400 105.073 M193.100 107.029 C 191.549 107.870,191.725 108.161,193.300 107.359 C 194.808 106.593,195.075 106.394,194.567 106.416 C 194.365 106.425,193.705 106.701,193.100 107.029 M243.170 107.500 L 242.200 108.600 243.400 107.600 C 244.060 107.050,244.675 106.555,244.767 106.500 C 244.858 106.445,244.755 106.400,244.536 106.400 C 244.318 106.400,243.703 106.895,243.170 107.500 M189.185 109.629 L 187.800 110.858 189.300 109.781 C 190.626 108.830,191.057 108.400,190.685 108.400 C 190.622 108.400,189.947 108.953,189.185 109.629 M155.200 108.925 C 155.200 108.994,155.785 109.579,156.500 110.225 L 157.800 111.400 156.625 110.100 C 155.530 108.888,155.200 108.616,155.200 108.925 M170.456 109.259 C 169.717 109.472,169.190 109.723,169.285 109.818 C 169.380 109.913,170.254 109.740,171.229 109.435 C 173.218 108.811,172.545 108.658,170.456 109.259 M205.200 110.600 C 204.228 111.590,203.523 112.400,203.633 112.400 C 203.743 112.400,204.628 111.590,205.600 110.600 C 206.572 109.610,207.277 108.800,207.167 108.800 C 207.057 108.800,206.172 109.610,205.200 110.600 M225.200 109.027 C 226.983 109.727,228.155 109.995,227.778 109.618 C 227.557 109.397,226.751 109.120,225.988 109.004 C 225.224 108.887,224.870 108.898,225.200 109.027 M164.900 111.212 C 163.561 111.751,163.811 112.024,165.200 111.540 C 165.860 111.310,166.400 111.049,166.400 110.961 C 166.400 110.724,165.913 110.805,164.900 111.212 M158.399 112.700 C 158.922 113.415,159.413 114.000,159.489 114.000 C 159.793 114.000,158.801 112.500,158.145 111.967 C 157.713 111.616,157.810 111.896,158.399 112.700 M185.144 113.500 C 183.993 114.889,183.506 115.600,183.704 115.600 C 183.814 115.600,184.386 114.970,184.973 114.200 C 186.063 112.771,186.195 112.232,185.144 113.500 M236.400 113.400 C 236.950 113.714,237.760 113.970,238.200 113.968 C 238.640 113.966,238.280 113.705,237.400 113.388 C 235.396 112.666,235.122 112.670,236.400 113.400 M292.800 114.400 C 293.270 115.060,293.744 115.600,293.854 115.600 C 293.964 115.600,293.670 115.060,293.200 114.400 C 292.730 113.740,292.256 113.200,292.146 113.200 C 292.036 113.200,292.330 113.740,292.800 114.400 M182.200 118.000 C 181.859 118.660,181.669 119.200,181.779 119.200 C 181.889 119.200,182.259 118.660,182.600 118.000 C 182.941 117.340,183.131 116.800,183.021 116.800 C 182.911 116.800,182.541 117.340,182.200 118.000 M200.800 117.152 C 200.800 117.542,202.355 118.998,202.523 118.764 C 202.587 118.674,202.226 118.201,201.720 117.714 C 201.214 117.227,200.800 116.974,200.800 117.152 M295.078 118.595 C 295.444 119.362,295.814 119.919,295.901 119.832 C 296.084 119.649,294.870 117.200,294.596 117.200 C 294.495 117.200,294.712 117.828,295.078 118.595 M102.181 118.837 C 101.829 119.518,101.612 120.145,101.699 120.232 C 101.786 120.319,102.156 119.762,102.522 118.995 C 103.344 117.270,103.059 117.138,102.181 118.837 M168.200 122.614 C 167.200 123.096,167.166 123.151,168.000 122.948 C 169.133 122.671,170.407 122.021,169.800 122.030 C 169.580 122.033,168.860 122.296,168.200 122.614 M230.000 123.400 C 230.550 123.714,231.180 123.972,231.400 123.972 C 231.620 123.972,231.350 123.714,230.800 123.400 C 230.250 123.086,229.620 122.828,229.400 122.828 C 229.180 122.828,229.450 123.086,230.000 123.400 M178.678 124.613 C 178.060 125.156,177.714 125.600,177.908 125.600 C 178.102 125.600,178.683 125.150,179.200 124.600 C 180.395 123.328,180.131 123.334,178.678 124.613 M228.390 125.281 C 228.284 126.316,228.345 127.015,228.526 126.834 C 228.707 126.653,228.793 125.807,228.719 124.953 L 228.583 123.400 228.390 125.281 M100.215 124.900 C 100.062 125.395,99.877 128.230,99.805 131.200 L 99.675 136.600 99.980 131.400 C 100.148 128.540,100.421 125.705,100.586 125.100 C 100.945 123.786,100.615 123.608,100.215 124.900 M173.103 125.100 C 173.621 125.595,174.350 125.989,174.722 125.975 C 175.173 125.958,175.068 125.817,174.408 125.554 C 173.863 125.336,173.134 124.942,172.789 124.679 C 172.443 124.416,172.585 124.605,173.103 125.100 M297.497 127.200 C 297.615 128.850,297.776 130.275,297.856 130.367 C 298.122 130.675,297.909 126.613,297.594 125.400 C 297.412 124.697,297.372 125.442,297.497 127.200 M222.200 127.200 C 222.541 127.860,222.911 128.400,223.021 128.400 C 223.131 128.400,222.941 127.860,222.600 127.200 C 222.259 126.540,221.889 126.000,221.779 126.000 C 221.669 126.000,221.859 126.540,222.200 127.200 M237.200 126.821 C 238.242 127.530,240.000 128.428,240.000 128.250 C 240.000 128.028,237.239 126.398,236.877 126.406 C 236.725 126.409,236.870 126.596,237.200 126.821 M225.400 128.800 L 224.200 129.105 225.276 129.153 C 225.868 129.179,226.464 129.020,226.600 128.800 C 226.736 128.580,226.792 128.421,226.724 128.447 C 226.656 128.473,226.060 128.632,225.400 128.800 M241.000 129.007 C 241.440 129.366,242.160 129.835,242.600 130.051 L 243.400 130.444 242.600 129.793 C 242.160 129.434,241.440 128.965,241.000 128.749 L 240.200 128.356 241.000 129.007 M243.600 130.524 C 243.600 130.617,244.365 131.198,245.300 131.815 C 246.235 132.432,246.789 132.680,246.531 132.368 C 246.034 131.767,243.600 130.236,243.600 130.524 M298.101 132.200 C 298.105 133.080,298.187 133.393,298.283 132.895 C 298.379 132.398,298.375 131.678,298.275 131.295 C 298.175 130.913,298.096 131.320,298.101 132.200 M247.200 132.946 C 247.200 133.056,247.740 133.530,248.400 134.000 C 249.060 134.470,249.600 134.764,249.600 134.654 C 249.600 134.544,249.060 134.070,248.400 133.600 C 247.740 133.130,247.200 132.836,247.200 132.946 M297.482 136.505 C 297.353 137.883,297.133 139.368,296.994 139.805 C 296.767 140.513,296.788 140.524,297.184 139.910 C 297.636 139.209,298.281 134.000,297.916 134.000 C 297.806 134.000,297.610 135.127,297.482 136.505 M250.800 135.593 C 251.350 136.067,253.060 137.537,254.600 138.861 L 257.400 141.267 254.800 138.790 C 253.370 137.428,251.660 135.958,251.000 135.522 L 249.800 134.731 250.800 135.593 M100.028 137.633 C 100.044 138.165,100.219 138.960,100.419 139.400 C 100.671 139.958,100.707 139.715,100.538 138.600 C 100.255 136.743,99.987 136.236,100.028 137.633 M139.192 141.900 L 135.400 145.800 139.300 142.008 C 142.922 138.486,143.382 138.000,143.092 138.000 C 143.033 138.000,141.278 139.755,139.192 141.900 M101.628 143.400 C 101.628 143.620,101.886 144.250,102.200 144.800 C 102.514 145.350,102.772 145.620,102.772 145.400 C 102.772 145.180,102.514 144.550,102.200 144.000 C 101.886 143.450,101.628 143.180,101.628 143.400 M295.265 144.617 C 294.595 146.088,294.723 146.402,295.447 145.065 C 295.786 144.440,295.988 143.854,295.896 143.763 C 295.805 143.671,295.521 144.056,295.265 144.617 M261.400 145.600 C 262.259 146.480,263.052 147.200,263.162 147.200 C 263.272 147.200,262.659 146.480,261.800 145.600 C 260.941 144.720,260.148 144.000,260.038 144.000 C 259.928 144.000,260.541 144.720,261.400 145.600 M266.175 151.332 C 266.791 152.139,267.376 152.800,267.475 152.800 C 267.753 152.800,266.021 150.460,265.509 150.144 C 265.259 149.989,265.559 150.524,266.175 151.332 M288.101 155.134 C 286.286 157.040,284.801 158.714,284.801 158.854 C 284.800 159.119,290.236 153.521,291.165 152.300 C 292.213 150.923,291.350 151.721,288.101 155.134 M129.200 153.600 C 128.730 154.260,128.436 154.800,128.546 154.800 C 128.656 154.800,129.130 154.260,129.600 153.600 C 130.070 152.940,130.364 152.400,130.254 152.400 C 130.144 152.400,129.670 152.940,129.200 153.600 M108.473 154.374 C 109.017 155.130,110.258 156.369,111.231 157.128 C 112.968 158.482,112.975 158.484,111.600 157.218 C 110.830 156.509,109.589 155.270,108.841 154.464 L 107.483 153.000 108.473 154.374 M269.455 156.000 C 270.480 157.540,271.392 158.800,271.482 158.800 C 271.695 158.800,271.398 158.301,269.515 155.500 C 268.666 154.235,267.885 153.200,267.782 153.200 C 267.678 153.200,268.431 154.460,269.455 156.000 M226.900 157.796 C 226.185 158.107,225.600 158.451,225.600 158.560 C 225.600 158.752,228.428 157.678,228.767 157.358 C 229.116 157.027,228.147 157.254,226.900 157.796 M272.666 161.178 C 273.277 162.266,273.843 163.090,273.924 163.009 C 274.097 162.837,272.010 159.200,271.739 159.200 C 271.637 159.200,272.054 160.090,272.666 161.178 M285.600 160.553 C 285.600 160.982,286.790 163.200,287.021 163.200 C 287.131 163.200,286.923 162.615,286.559 161.900 C 285.817 160.440,285.600 160.136,285.600 160.553 M247.600 164.200 C 248.795 165.410,249.863 166.400,249.973 166.400 C 250.083 166.400,249.195 165.410,248.000 164.200 C 246.805 162.990,245.737 162.000,245.627 162.000 C 245.517 162.000,246.405 162.990,247.600 164.200 M274.881 165.391 C 275.359 166.376,275.819 167.114,275.903 167.030 C 276.084 166.849,274.468 163.600,274.197 163.600 C 274.094 163.600,274.402 164.406,274.881 165.391 M120.444 169.244 C 120.198 169.951,120.066 170.600,120.152 170.685 C 120.238 170.771,120.509 170.262,120.756 169.556 C 121.002 168.849,121.134 168.200,121.048 168.115 C 120.962 168.029,120.691 168.538,120.444 169.244 M219.328 170.800 C 219.328 172.230,219.401 172.815,219.489 172.100 C 219.578 171.385,219.578 170.215,219.489 169.500 C 219.401 168.785,219.328 169.370,219.328 170.800 M144.581 170.837 C 144.229 171.518,144.012 172.145,144.099 172.232 C 144.186 172.319,144.556 171.762,144.922 170.995 C 145.744 169.270,145.459 169.138,144.581 170.837 M106.629 173.029 C 106.481 173.615,106.438 174.172,106.532 174.266 C 106.627 174.360,106.824 173.958,106.971 173.371 C 107.119 172.785,107.162 172.228,107.068 172.134 C 106.973 172.040,106.776 172.442,106.629 173.029 M290.644 173.200 C 290.780 173.970,291.054 174.870,291.251 175.200 C 291.677 175.910,291.268 173.837,290.739 172.600 C 290.508 172.060,290.477 172.256,290.644 173.200 M153.903 173.700 C 153.385 174.195,153.243 174.384,153.589 174.121 C 153.934 173.858,154.663 173.464,155.208 173.246 C 155.868 172.983,155.973 172.842,155.522 172.825 C 155.150 172.811,154.421 173.205,153.903 173.700 M157.449 173.375 C 159.857 174.423,160.776 177.408,159.368 179.611 L 158.736 180.600 159.568 179.656 C 161.388 177.590,159.532 172.761,156.940 172.816 C 156.453 172.826,156.627 173.017,157.449 173.375 M193.600 173.400 C 193.050 173.714,192.780 173.972,193.000 173.972 C 193.220 173.972,193.850 173.714,194.400 173.400 C 194.950 173.086,195.220 172.828,195.000 172.828 C 194.780 172.828,194.150 173.086,193.600 173.400 M240.500 173.076 C 240.885 173.176,241.515 173.176,241.900 173.076 C 242.285 172.975,241.970 172.893,241.200 172.893 C 240.430 172.893,240.115 172.975,240.500 173.076 M238.236 174.431 C 236.771 176.171,236.844 178.014,238.445 179.694 L 239.691 181.000 238.645 179.669 C 237.271 177.920,237.268 176.056,238.636 174.431 C 239.205 173.754,239.581 173.200,239.471 173.200 C 239.361 173.200,238.805 173.754,238.236 174.431 M279.268 176.400 C 279.288 177.439,279.918 179.146,279.932 178.200 C 279.938 177.760,279.789 177.040,279.600 176.600 C 279.389 176.110,279.261 176.032,279.268 176.400 M142.920 178.400 C 142.920 179.610,142.995 180.105,143.087 179.500 C 143.178 178.895,143.178 177.905,143.087 177.300 C 142.995 176.695,142.920 177.190,142.920 178.400 M189.693 179.200 C 189.693 179.970,189.775 180.285,189.876 179.900 C 189.976 179.515,189.976 178.885,189.876 178.500 C 189.775 178.115,189.693 178.430,189.693 179.200 M293.077 185.400 C 293.198 187.160,293.365 188.675,293.449 188.767 C 293.719 189.064,293.550 185.850,293.199 184.000 C 292.942 182.647,292.912 182.994,293.077 185.400 M104.509 184.400 C 104.509 185.390,104.587 185.795,104.682 185.300 C 104.778 184.805,104.778 183.995,104.682 183.500 C 104.587 183.005,104.509 183.410,104.509 184.400 M192.400 183.782 C 192.400 183.890,192.985 184.277,193.700 184.641 C 195.421 185.516,195.396 185.476,194.757 186.290 C 194.251 186.936,194.263 186.950,194.900 186.451 C 195.927 185.646,195.778 185.307,194.000 184.400 C 193.120 183.951,192.400 183.673,192.400 183.782 M171.200 186.200 C 170.228 187.190,169.523 188.000,169.633 188.000 C 169.743 188.000,170.628 187.190,171.600 186.200 C 172.572 185.210,173.277 184.400,173.167 184.400 C 173.057 184.400,172.172 185.210,171.200 186.200 M202.576 184.994 C 201.595 185.745,204.849 189.226,206.477 189.166 C 207.284 189.136,207.254 189.088,206.237 188.783 C 205.152 188.459,202.400 186.163,202.400 185.583 C 202.400 185.439,202.805 185.127,203.300 184.888 C 203.795 184.649,204.009 184.442,203.776 184.427 C 203.544 184.412,203.004 184.667,202.576 184.994 M116.120 186.800 C 116.120 188.010,116.195 188.505,116.287 187.900 C 116.378 187.295,116.378 186.305,116.287 185.700 C 116.195 185.095,116.120 185.590,116.120 186.800 M281.328 188.400 C 281.328 189.830,281.401 190.415,281.489 189.700 C 281.578 188.985,281.578 187.815,281.489 187.100 C 281.401 186.385,281.328 186.970,281.328 188.400 M104.114 188.200 C 104.117 189.300,104.195 189.703,104.287 189.095 C 104.379 188.486,104.377 187.586,104.282 187.095 C 104.187 186.603,104.111 187.100,104.114 188.200 M186.000 186.956 C 186.000 187.042,186.617 187.185,187.372 187.273 C 188.127 187.361,188.656 187.290,188.548 187.116 C 188.355 186.803,186.000 186.655,186.000 186.956 M208.370 187.900 L 207.400 189.000 208.400 188.130 C 208.950 187.651,210.030 187.185,210.800 187.094 L 212.200 186.928 210.770 186.864 C 209.664 186.815,209.119 187.050,208.370 187.900 M184.623 188.089 C 183.914 189.100,183.829 190.321,184.406 191.200 C 184.685 191.627,184.727 191.426,184.550 190.505 C 184.382 189.627,184.514 188.886,184.960 188.205 C 185.773 186.964,185.481 186.864,184.623 188.089 M189.762 188.300 C 190.673 189.376,192.099 189.468,192.832 188.500 C 193.282 187.904,193.278 187.875,192.801 188.300 C 192.013 189.003,190.807 188.922,189.831 188.100 C 189.001 187.401,189.001 187.401,189.762 188.300 M213.600 189.826 C 213.600 190.391,213.410 191.246,213.178 191.726 C 212.770 192.570,212.777 192.574,213.378 191.824 C 213.947 191.113,214.270 188.800,213.800 188.800 C 213.690 188.800,213.600 189.262,213.600 189.826 M115.734 192.000 C 115.734 193.650,115.805 194.325,115.891 193.500 C 115.978 192.675,115.978 191.325,115.891 190.500 C 115.805 189.675,115.734 190.350,115.734 192.000 M164.000 191.000 C 163.450 191.314,163.180 191.572,163.400 191.572 C 163.620 191.572,164.250 191.314,164.800 191.000 C 165.350 190.686,165.620 190.428,165.400 190.428 C 165.180 190.428,164.550 190.686,164.000 191.000 M197.033 193.017 C 196.172 193.777,195.580 194.400,195.719 194.400 C 195.858 194.400,196.615 193.835,197.402 193.145 L 198.831 191.890 199.716 192.692 C 200.566 193.463,203.210 195.205,202.800 194.723 C 202.529 194.405,198.818 191.596,198.697 191.617 C 198.643 191.626,197.895 192.256,197.033 193.017 M155.907 192.690 C 156.626 192.779,157.706 192.777,158.307 192.686 C 158.908 192.595,158.320 192.522,157.000 192.524 C 155.680 192.526,155.188 192.601,155.907 192.690 M239.305 192.687 C 239.914 192.779,240.814 192.777,241.305 192.682 C 241.797 192.587,241.300 192.511,240.200 192.514 C 239.100 192.517,238.697 192.595,239.305 192.687 M211.000 193.810 C 210.120 194.352,209.559 194.797,209.753 194.798 C 210.163 194.800,212.800 193.216,212.800 192.967 C 212.800 192.713,212.721 192.751,211.000 193.810 M281.331 196.200 C 281.333 197.740,281.405 198.321,281.492 197.491 C 281.579 196.661,281.577 195.401,281.489 194.691 C 281.400 193.981,281.329 194.660,281.331 196.200 M104.109 196.400 C 104.109 197.390,104.187 197.795,104.282 197.300 C 104.378 196.805,104.378 195.995,104.282 195.500 C 104.187 195.005,104.109 195.410,104.109 196.400 M293.301 197.000 C 293.305 197.880,293.387 198.193,293.483 197.695 C 293.579 197.198,293.575 196.478,293.475 196.095 C 293.375 195.713,293.296 196.120,293.301 197.000 M116.109 197.600 C 116.109 198.590,116.187 198.995,116.282 198.500 C 116.378 198.005,116.378 197.195,116.282 196.700 C 116.187 196.205,116.109 196.610,116.109 197.600 M104.509 200.000 C 104.509 200.990,104.587 201.395,104.682 200.900 C 104.778 200.405,104.778 199.595,104.682 199.100 C 104.587 198.605,104.509 199.010,104.509 200.000 M292.864 199.850 C 292.829 200.538,292.711 201.708,292.601 202.450 L 292.403 203.800 292.824 202.458 C 293.055 201.720,293.173 200.550,293.086 199.858 L 292.928 198.600 292.864 199.850 M279.273 207.273 C 279.035 208.209,278.910 209.043,278.994 209.127 C 279.078 209.212,279.351 208.524,279.600 207.600 C 279.849 206.676,279.974 205.841,279.879 205.745 C 279.783 205.650,279.510 206.337,279.273 207.273 M238.482 207.896 C 239.958 207.973,242.478 207.973,244.082 207.897 C 245.687 207.821,244.480 207.758,241.400 207.758 C 238.320 207.757,237.007 207.819,238.482 207.896 M252.921 207.898 C 255.077 207.971,258.497 207.970,260.521 207.898 C 262.544 207.825,260.780 207.766,256.600 207.767 C 252.420 207.767,250.764 207.826,252.921 207.898 M266.800 208.600 C 268.626 209.303,269.345 209.293,267.800 208.586 C 267.140 208.283,266.330 208.042,266.000 208.048 C 265.670 208.055,266.030 208.303,266.800 208.600 M106.468 209.800 C 106.462 210.240,106.611 210.960,106.800 211.400 C 107.238 212.419,107.238 211.368,106.800 210.000 C 106.543 209.196,106.477 209.157,106.468 209.800 M290.650 210.450 C 290.509 211.153,290.469 211.802,290.559 211.892 C 290.650 211.983,290.848 211.491,291.000 210.800 C 291.152 210.109,291.193 209.459,291.091 209.358 C 290.989 209.256,290.791 209.747,290.650 210.450 M271.181 210.688 C 271.741 211.177,272.621 212.077,273.136 212.688 C 273.689 213.346,273.908 213.473,273.672 213.000 C 273.271 212.196,271.931 210.889,270.781 210.181 C 270.441 209.971,270.621 210.200,271.181 210.688 M122.577 215.750 C 122.430 216.335,122.130 216.680,121.896 216.535 C 121.651 216.384,121.595 216.469,121.762 216.738 C 121.919 216.992,122.131 217.200,122.234 217.200 C 122.523 217.200,123.246 215.113,123.031 214.897 C 122.925 214.792,122.721 215.176,122.577 215.750 M275.828 215.872 C 275.597 216.474,275.502 216.491,275.185 215.989 C 274.872 215.495,274.811 215.513,274.806 216.100 C 274.803 216.485,274.958 216.800,275.151 216.800 C 275.624 216.800,276.568 215.634,276.306 215.373 C 276.192 215.259,275.977 215.483,275.828 215.872 M288.467 216.780 C 288.233 217.451,288.127 218.000,288.231 218.000 C 288.501 218.000,289.256 215.922,289.057 215.724 C 288.967 215.633,288.701 216.108,288.467 216.780 M136.200 219.582 C 135.760 219.764,134.950 220.397,134.400 220.988 L 133.400 222.064 133.200 249.671 C 133.090 264.854,133.101 277.441,133.225 277.641 C 133.358 277.856,144.900 277.963,161.380 277.903 L 189.308 277.800 189.645 276.800 L 189.982 275.800 189.342 276.700 L 188.702 277.600 161.151 277.600 L 133.600 277.600 133.606 250.300 C 133.612 220.449,133.525 221.545,136.006 220.301 C 137.779 219.411,258.610 219.239,261.200 220.123 C 264.094 221.109,263.999 220.077,263.999 250.497 L 264.000 277.594 238.100 277.701 L 212.200 277.809 238.200 277.804 L 264.200 277.800 264.301 250.600 C 264.414 220.157,264.520 221.359,261.600 219.901 C 260.075 219.139,138.021 218.828,136.200 219.582 M286.240 221.640 C 285.772 222.578,285.755 222.770,286.167 222.427 C 286.659 222.019,287.318 220.400,286.992 220.400 C 286.919 220.400,286.580 220.958,286.240 221.640 M105.200 240.084 C 105.200 240.204,104.928 240.954,104.595 241.751 C 104.262 242.548,104.079 243.200,104.189 243.200 C 104.506 243.200,105.633 240.300,105.405 240.072 C 105.292 239.959,105.200 239.965,105.200 240.084 M292.428 241.000 C 292.428 241.220,292.686 241.850,293.000 242.400 C 293.314 242.950,293.572 243.220,293.572 243.000 C 293.572 242.780,293.314 242.150,293.000 241.600 C 292.686 241.050,292.428 240.780,292.428 241.000 M100.229 253.429 C 100.081 254.015,100.038 254.572,100.132 254.666 C 100.227 254.760,100.424 254.358,100.571 253.771 C 100.719 253.185,100.762 252.628,100.668 252.534 C 100.573 252.440,100.376 252.842,100.229 253.429 M185.100 253.882 C 185.595 253.978,186.405 253.978,186.900 253.882 C 187.395 253.787,186.990 253.709,186.000 253.709 C 185.010 253.709,184.605 253.787,185.100 253.882 M181.862 254.731 C 181.498 255.134,181.200 255.624,181.200 255.820 C 181.200 256.017,181.472 255.790,181.804 255.316 C 182.135 254.842,182.810 254.377,183.304 254.282 C 184.146 254.119,184.150 254.106,183.362 254.054 C 182.901 254.025,182.226 254.329,181.862 254.731 M200.400 254.293 C 214.495 254.409,214.400 254.388,214.400 257.355 C 214.400 259.681,213.507 260.390,210.477 260.474 C 207.825 260.547,207.821 260.549,209.979 260.698 C 214.390 261.001,216.407 258.150,213.971 255.054 L 213.142 254.000 200.471 254.094 L 187.800 254.188 200.400 254.293 M180.841 257.331 C 180.755 259.711,182.610 260.800,186.751 260.800 L 190.363 260.800 190.511 263.402 L 190.659 266.003 190.630 263.302 L 190.600 260.600 186.712 260.400 C 182.400 260.178,181.741 259.837,181.199 257.544 C 180.893 256.247,180.880 256.240,180.841 257.331 M206.066 260.921 C 205.828 261.207,205.722 261.792,205.830 262.221 C 205.939 262.649,206.283 264.800,206.597 267.000 L 207.166 271.000 206.964 267.800 C 206.853 266.040,206.608 263.920,206.420 263.089 C 206.161 261.941,206.221 261.436,206.668 260.989 C 206.992 260.665,207.086 260.400,206.878 260.400 C 206.669 260.400,206.303 260.634,206.066 260.921 M299.518 266.000 C 299.624 268.957,299.519 271.640,299.262 272.566 C 298.923 273.791,298.933 274.027,299.312 273.648 C 299.916 273.044,300.202 264.855,299.697 262.600 C 299.447 261.482,299.393 262.507,299.518 266.000 M97.856 263.845 C 97.715 264.872,97.627 267.082,97.660 268.756 C 97.711 271.393,97.760 271.158,98.023 267.000 C 98.343 261.929,98.281 260.746,97.856 263.845 M189.800 270.800 C 189.640 273.244,189.596 275.330,189.702 275.436 C 189.808 275.542,190.025 273.628,190.183 271.183 C 190.342 268.738,190.386 266.652,190.281 266.548 C 190.176 266.443,189.960 268.356,189.800 270.800 M207.314 273.000 C 207.317 274.100,207.395 274.503,207.487 273.895 C 207.579 273.286,207.577 272.386,207.482 271.895 C 207.387 271.403,207.311 271.900,207.314 273.000 M207.736 276.360 C 207.819 278.120,208.679 278.677,210.456 278.119 L 211.800 277.697 210.003 277.748 C 208.253 277.799,208.199 277.763,207.939 276.400 L 207.673 275.000 207.736 276.360 M84.105 277.487 C 84.714 277.579,85.614 277.577,86.105 277.482 C 86.597 277.387,86.100 277.311,85.000 277.314 C 83.900 277.317,83.497 277.395,84.105 277.487 M311.700 277.487 C 312.305 277.578,313.295 277.578,313.900 277.487 C 314.505 277.395,314.010 277.320,312.800 277.320 C 311.590 277.320,311.095 277.395,311.700 277.487 M320.493 283.600 C 320.493 284.370,320.575 284.685,320.676 284.300 C 320.776 283.915,320.776 283.285,320.676 282.900 C 320.575 282.515,320.493 282.830,320.493 283.600 " stroke="none" fill="#747c81" fill-rule="evenodd"></path></g></svg>